<svg xmlns="http://www.w3.org/2000/svg" xmlns:xlink="http://www.w3.org/1999/xlink" width="261" height="207.969" viewBox="0 0 261 207.969"><defs><style>.a,.bg{fill:#2e2e2e;}.a{opacity:0.027;}.b{fill:#e8e9ed;}.c,.e{fill:#3acc6c;}.c,.d,.g,.n{opacity:0.5;}.d,.f,.q{fill:#5abb67;}.e,.f,.h,.m{opacity:0.8;}.g,.h,.i{fill:#50c4d0;}.j{fill:#f3f5f7;}.k,.o,.r,.v{opacity:0.1;}.l,.o{fill:#6c63ff;}.p{fill:#fff;}.q{opacity:0.486;}.r{fill:#e7e7db;}.s{fill:url(#a);}.t{fill:url(#b);}.u{fill:url(#c);}.w{fill:url(#d);}.x{fill:url(#e);}.y{fill:url(#f);}.z{fill:url(#g);}.aa{fill:url(#h);}.ab{fill:url(#i);}.ac{fill:url(#j);}.ad{fill:url(#k);}.ae{fill:url(#l);}.af{fill:url(#m);}.ag{fill:url(#n);}.ah{fill:url(#o);}.ai{fill:url(#p);}.aj{fill:url(#q);}.ak{fill:url(#r);}.al{fill:url(#s);}.am{fill:url(#t);}.an{fill:url(#u);}.ao{fill:url(#v);}.ap{fill:url(#w);}.aq{fill:url(#x);}.ar{fill:url(#y);}.as{fill:url(#z);}.at{fill:url(#aa);}.au{fill:url(#ab);}.av{fill:url(#ac);}.aw{fill:url(#ad);}.ax{fill:url(#ae);}.ay{fill:url(#af);}.az{fill:url(#ag);}.ba{fill:url(#ah);}.bb{fill:url(#ai);}.bc{fill:#ffdbce;}.bd{fill:#1c5898;}.be{fill:#efb7b9;}.bf{fill:#48b0bb;}</style><linearGradient id="a" x1="0.5" y1="1" x2="0.5" gradientUnits="objectBoundingBox"><stop offset="0" stop-color="gray" stop-opacity="0.251"/><stop offset="0.54" stop-color="gray" stop-opacity="0.122"/><stop offset="1" stop-color="gray" stop-opacity="0.102"/></linearGradient><linearGradient id="b" x1="0.5" y1="1" x2="0.5" y2="-0.001" xlink:href="#a"/><linearGradient id="c" x1="0.499" y1="1" x2="0.499" y2="-0.001" xlink:href="#a"/><linearGradient id="d" x1="0.5" y1="1" x2="0.5" y2="0" xlink:href="#a"/><linearGradient id="e" x1="0.5" y1="1" x2="0.5" y2="0" xlink:href="#a"/><linearGradient id="f" x1="0.5" y1="1" x2="0.5" y2="0" xlink:href="#a"/><linearGradient id="g" x1="0.5" y1="0.995" x2="0.5" y2="0" xlink:href="#a"/><linearGradient id="h" x1="0.5" y1="0.999" x2="0.5" y2="0.001" xlink:href="#a"/><linearGradient id="i" x1="0.5" y1="0.998" x2="0.5" y2="0" xlink:href="#a"/><linearGradient id="j" x1="0.5" y1="1" x2="0.5" y2="0" xlink:href="#a"/><linearGradient id="k" x1="0.5" y1="1" x2="0.5" y2="0" xlink:href="#a"/><linearGradient id="l" x1="0.5" y1="1" x2="0.5" y2="0" xlink:href="#a"/><linearGradient id="m" x1="0.5" y1="0.999" x2="0.5" y2="-0.001" xlink:href="#a"/><linearGradient id="n" x1="0.5" y1="1" x2="0.5" y2="0" xlink:href="#a"/><linearGradient id="o" x1="0.5" y1="1" x2="0.5" y2="-0.002" xlink:href="#a"/><linearGradient id="p" x1="0.5" y1="0.998" x2="0.5" y2="-0.002" xlink:href="#a"/><linearGradient id="q" x1="0.498" y1="1" x2="0.498" y2="0" xlink:href="#a"/><linearGradient id="r" x1="0.499" y1="0.999" x2="0.499" y2="-0.002" xlink:href="#a"/><linearGradient id="s" x1="0.5" y1="1" x2="0.5" y2="0.001" xlink:href="#a"/><linearGradient id="t" x1="0.5" y1="1" x2="0.5" y2="0" xlink:href="#a"/><linearGradient id="u" x1="0.498" y1="1.001" x2="0.498" y2="0" xlink:href="#a"/><linearGradient id="v" x1="0.498" y1="1" x2="0.498" y2="0" xlink:href="#a"/><linearGradient id="w" x1="0.511" y1="1.001" x2="0.511" y2="0" xlink:href="#a"/><linearGradient id="x" x1="0.5" y1="1.001" x2="0.5" y2="0.006" xlink:href="#a"/><linearGradient id="y" x1="0.5" y1="1" x2="0.5" y2="0" xlink:href="#a"/><linearGradient id="z" x1="0.5" y1="0.984" x2="0.5" y2="0" xlink:href="#a"/><linearGradient id="aa" x1="0.5" y1="1" x2="0.5" y2="0" xlink:href="#a"/><linearGradient id="ab" x1="0.5" y1="1" x2="0.5" y2="0" xlink:href="#a"/><linearGradient id="ac" x1="0.497" y1="1" x2="0.497" y2="0" xlink:href="#a"/><linearGradient id="ad" x1="0.499" y1="1" x2="0.499" y2="0" xlink:href="#a"/><linearGradient id="ae" x1="0.5" y1="0.999" x2="0.5" y2="-0.001" xlink:href="#a"/><linearGradient id="af" x1="0.501" y1="1" x2="0.501" y2="0" xlink:href="#a"/><linearGradient id="ag" x1="0.501" y1="1" x2="0.501" y2="0" xlink:href="#a"/><linearGradient id="ah" x1="0.5" y1="1.001" x2="0.5" y2="0" xlink:href="#a"/><linearGradient id="ai" x1="0.5" y1="1.001" x2="0.5" y2="0.001" xlink:href="#a"/></defs><g transform="translate(-1059 -852.681)"><path class="a" d="M198.94,60a289.1,289.1,0,0,1-34.932-2.965c-11.1-1.473-22.1-3.108-34.01-3.886-7.663-.5-16.427-.574-22.6.831-5.939,1.351-7.863,3.686-8.894,5.848-.777,1.628-1.233,3.342.894,4.866,1.479,1.058,4.1,1.948,5.914,2.961,6.312,3.528,1.85,7.877-4.988,11.321-3.206,1.615-6.931,3.158-9.407,4.876s-3.621,3.69-1.454,5.445c2.146,1.74,7.263,3.045,12.806,3.963,11.257,1.866,24.518,2.4,37.458,2.7,28.635.669,57.421.38,86.132.089,10.626-.107,21.3-.216,31.749-.777,5.805-.312,11.8-.807,16.012-2,5.349-1.517,6.675-4.085,3.089-5.987-6.013-3.19-22.632-3.982-26.84-7.405-2.312-1.885.062-3.983,3.425-5.731,7.212-3.749,19.3-7.039,19.935-11.324.438-2.943-5.373-5.891-14.358-7.284-9.417-1.46-22.477-1.276-29.422,1.14C222.29,59.172,209.715,60.13,198.94,60Z" transform="translate(995.74 964.277)"/><rect class="b" width="63.778" height="63.778" transform="translate(1059 880.381)"/><rect class="b" width="63.778" height="63.778" transform="translate(1256.222 880.381)"/><path class="c" d="M190.677,82.715l-.637-.651a.133.133,0,0,0-.1-.044.128.128,0,0,0-.1.044l-4.4,4.424-1.6-1.6a.138.138,0,0,0-.2,0l-.641.641a.143.143,0,0,0,0,.206l2.02,2.018a.632.632,0,0,0,.42.206.669.669,0,0,0,.42-.2h0l4.824-4.839a.155.155,0,0,0,0-.206Z" transform="translate(904.055 775.191)"/><path class="d" d="M175.723,64.6a6.486,6.486,0,1,1-4.591,1.9,6.486,6.486,0,0,1,4.591-1.9m0-1.01a7.5,7.5,0,1,0,5.307,2.2A7.5,7.5,0,0,0,175.723,63.59Z" transform="translate(915.165 789.091)"/><path class="e" d="M384.969,167.495l-.8-.821a.167.167,0,0,0-.125-.054.162.162,0,0,0-.128.054l-5.537,5.579-2.018-2.015a.172.172,0,0,0-.125-.054.177.177,0,0,0-.128.054l-.809.809a.177.177,0,0,0,0,.258l2.541,2.536a.8.8,0,0,0,.531.258.843.843,0,0,0,.526-.246h0l6.07-6.1a.194.194,0,0,0,0-.246Z" transform="translate(759.02 711.382)"/><path class="f" d="M366.135,144.681a8.172,8.172,0,1,1-5.78,2.394,8.171,8.171,0,0,1,5.78-2.394m0-1.271a9.445,9.445,0,1,0,9.445,9.445,9.445,9.445,0,0,0-9.445-9.445Z" transform="translate(773.013 728.888)"/><path class="g" d="M978.213,64.6a6.486,6.486,0,1,1-4.591,1.9,6.486,6.486,0,0,1,4.591-1.9m0-1.01a7.5,7.5,0,1,0,5.307,2.2A7.5,7.5,0,0,0,978.213,63.59Z" transform="translate(309.897 789.091)"/><path class="h" d="M774.522,144.681a8.161,8.161,0,1,0,.012,0m0-1.271a9.463,9.463,0,1,1-.012,0Z" transform="translate(464.983 728.888)"/><path class="i" d="M560.007,204.4a10.8,10.8,0,1,1-7.643,3.163,10.8,10.8,0,0,1,7.643-3.163m0-1.681a12.487,12.487,0,1,0,12.487,12.487,12.487,12.487,0,0,0-12.487-12.487Z" transform="translate(629.082 684.154)"/><rect class="j" width="71.075" height="71.075" transform="translate(1103.611 897.098)"/><rect class="j" width="71.075" height="71.075" transform="translate(1203.968 897.098)"/><rect class="k" width="23.706" height="2.635" transform="translate(1065.372 891.703)"/><rect class="k" width="23.706" height="2.635" transform="translate(1267.699 891.703)"/><path class="l" d="M754.233,618.731c.769,1.256,5.276,3.5,5.276,3.5s.039-5.036-.737-6.291a2.667,2.667,0,1,0-4.544,2.792Z" transform="translate(473.473 373.447)"/><rect class="k" width="23.706" height="2.635" transform="translate(1112.785 912.268)"/><rect class="k" width="14.153" height="2.635" transform="translate(1156.469 935.427)"/><rect class="k" width="20.959" height="2.635" transform="translate(1156.469 953.107)"/><rect class="k" width="23.706" height="2.635" transform="translate(1112.785 921.553)"/><rect class="k" width="23.706" height="2.635" transform="translate(1219.464 912.268)"/><rect class="k" width="23.706" height="2.635" transform="translate(1219.464 921.553)"/><path class="i" d="M584.66,244.636l.664-.87a3.44,3.44,0,0,0,2.389.983c1.121,0,1.951-.548,1.951-1.435,0-.963-.8-1.6-3-1.6v-1c1.966,0,2.7-.646,2.7-1.5,0-.772-.661-1.253-1.642-1.253a3.161,3.161,0,0,0-2.055.841l-.705-.841a4.3,4.3,0,0,1,2.814-1.094c1.7,0,2.949.816,2.949,2.246,0,1.008-.737,1.666-1.8,2.03v.054a2.346,2.346,0,0,1,2.091,2.177c0,1.553-1.475,2.485-3.215,2.485A4.263,4.263,0,0,1,584.66,244.636Z" transform="translate(601.07 658.397)"/><g class="m" transform="translate(1236.128 877.604)"><path class="i" d="M793.891,167.782c0-.472.042-1.074.066-1.546H793.9c-.27.418-.578.833-.853,1.249l-1.966,2.522h5.22v1.015H789.73v-.86L793.65,165h1.443v8.206h-1.2Z" transform="translate(-789.73 -165)"/></g><g class="n" transform="translate(1285.556 857.542)"><path class="i" d="M990.85,88.612l.445-.607a2.313,2.313,0,0,0,1.61.661,1.278,1.278,0,0,0,1.413-1.246c0-.774-.548-1.192-1.361-1.192a2.08,2.08,0,0,0-1.16.342l-.462-.3.187-2.9h3.441v.8h-2.63l-.145,1.59a2.418,2.418,0,0,1,1.02-.216,1.815,1.815,0,0,1,2.047,1.863,2.085,2.085,0,0,1-2.239,2.032,3.021,3.021,0,0,1-2.165-.826Z" transform="translate(-990.85 -83.37)"/></g><rect class="o" width="87.858" height="87.858" transform="translate(1144.319 919.664)"/><rect class="p" width="87.858" height="87.858" transform="translate(1147.268 915.486)"/><rect class="q" width="69.452" height="2.635" transform="translate(1156.469 925.218)"/><rect class="k" width="44.225" height="2.635" transform="translate(1156.469 944.267)"/><rect class="k" width="42.91" height="2.635" transform="translate(1156.469 961.949)"/><rect class="k" width="58.494" height="2.635" transform="translate(1156.469 970.789)"/><path class="c" d="M685.218,436.182l-.3-.312a.074.074,0,0,0-.049-.02.067.067,0,0,0-.047.02l-2.1,2.114-.764-.764a.078.078,0,0,0-.049-.02.071.071,0,0,0-.047.02l-.307.307a.069.069,0,0,0,0,.1l.963.961a.255.255,0,0,0,.4,0h0l2.3-2.308A.079.079,0,0,0,685.218,436.182Z" transform="translate(528.002 508.318)"/><path class="c" d="M678.088,427.529a3.1,3.1,0,1,1-2.187.907,3.1,3.1,0,0,1,2.187-.907m0-.479a3.576,3.576,0,1,0,3.573,3.574,3.576,3.576,0,0,0-3.573-3.574Z" transform="translate(533.302 514.956)"/><path class="c" d="M688.314,508.406l-.556-.57a.118.118,0,0,0-.09-.036.109.109,0,0,0-.086.036l-3.859,3.886-1.407-1.4a.127.127,0,0,0-.09-.041.118.118,0,0,0-.086.041l-.565.561a.127.127,0,0,0,0,.181l1.773,1.773a.566.566,0,0,0,.371.181.592.592,0,0,0,.366-.176h0l4.23-4.252A.145.145,0,0,0,688.314,508.406Z" transform="translate(530.25 450.299)"/><path class="c" d="M681.1,499.9a5.7,5.7,0,1,1-4.026,1.669A5.7,5.7,0,0,1,681.1,499.9m0-.9a6.582,6.582,0,1,0,6.577,6.581A6.582,6.582,0,0,0,681.1,499Z" transform="translate(534.097 455.118)"/><ellipse class="r" cx="17.55" cy="2.944" rx="17.55" ry="2.944" transform="translate(1167.406 1039.37)"/><path class="k" d="M562.25,456.536c-.165-.337-1.475-4.67-1.475-4.67l-2.524-6.407s-1.531-8.432-3.817-6.328,1.229,7.152,1.229,7.152,1.443,3.686,1.369,4.424a17.037,17.037,0,0,0,.8,3.441l-.285,1.553c-.371-.025-.612-.025-.612-.025s-.226.324-.442.346a.2.2,0,0,1-.108-.015,6.016,6.016,0,0,0-1.475-.089,3.3,3.3,0,0,1-1.1-.354c-.142-.285-.949-.455-1.664-.551a14.425,14.425,0,0,1-1.413-4.077,1.762,1.762,0,0,1,.216-1.111,1.387,1.387,0,0,1,.162-.2c.2-.2.442-.378.663-.565.111-.093.211-.189.307-.287,1.875-1.819,1.578-4.635-.123-6.584-1.966-2.254-10.833-7.1-13.517-2.949a4.69,4.69,0,0,0-.492,1.895,7.9,7.9,0,0,1-2.118,4.178,13.673,13.673,0,0,0-2.568,2.89l-.017-.039a2.868,2.868,0,0,0-.265.737c-.258,1.3.622,2.561,1.084,3.831a6.878,6.878,0,0,1,.339,1.332l.03-.28a8.645,8.645,0,0,1,.115,1.966c-3.219.659-3.222,6.208-3.222,6.208a19.276,19.276,0,0,0-.329,3c.066.789.066,2.514.066,2.934s-.4,3-.442,3.311c-.057.342-.661,1.978.8,2.347.1.027.209.049.319.069.062,1.325.177,4.1.076,4.719a30.9,30.9,0,0,0,.971,4.669,11.069,11.069,0,0,0,.983,1.585,1.72,1.72,0,0,1-.224.641c-.224.327-.108.595.268.71q-.017.17-.044.383a19.755,19.755,0,0,0,0,5.748,14.623,14.623,0,0,1,.595,2.647,1.964,1.964,0,0,0,.231.926,19.424,19.424,0,0,1,.664,3.905c0,.5,1.125,4.964.794,6.024a6.49,6.49,0,0,0-.066,2.549,21.947,21.947,0,0,1-.43,3.178,80.21,80.21,0,0,0,.032,11.981c.364,2.35.6,4.3.6,4.3a9.3,9.3,0,0,0-.034,2.458c.211.307.563,2.086.3,2.185s-.4.828-.4.828a7.256,7.256,0,0,0,.452.617,2.5,2.5,0,0,1-.3-.128c.106.15.263.356.455.582l-.179,2.379a.4.4,0,0,0,.295.418,3.3,3.3,0,0,0,3.288-.932c1.654-1.688,2.212-1.455,2.517-2.482.03-.111.059-.216.081-.32a1.074,1.074,0,0,0-1.521-1.2,7.817,7.817,0,0,0,.108-2.01,30.142,30.142,0,0,1-.133-3.475l-.231-12.042a16.422,16.422,0,0,1,.927-3.308c.5-.927.43-4.178.43-4.178l.563-10.659.56-5.161s.529-1.787,1.19.2a39.351,39.351,0,0,0-.2,4.964,44.27,44.27,0,0,1,.231,6.653c-.165,1.027-.894,6.653-.43,8.076a13.216,13.216,0,0,1,.86,3.706c-.1.563-.43,12.78-.43,12.78s.892,2.35.231,3.111-.032,3.807-.032,3.807.078.057.216.138l-.02.246-.207,2.738a.4.4,0,0,0,.3.418,3.308,3.308,0,0,0,3.288-.931c1.654-1.688,2.212-1.457,2.517-2.482.029-.111.059-.219.083-.322a1.076,1.076,0,0,0-1.735-1.069.224.224,0,0,1-.037.032c-.042.037-.086.069-.13.1l-.064.042a9.189,9.189,0,0,0,.292-2.657,20.5,20.5,0,0,1,.165-3.608,27.361,27.361,0,0,0,.983-4.534c.022-1.29.265-10.322.265-10.322s-.032-4.2.1-5.227,1.19-9.9,2.249-12.534c.813-2.03,1.177-7.2.961-9.831-.012-.133-.024-.246-.037-.374a3.935,3.935,0,0,0,1.433-2.576,13.626,13.626,0,0,0-2.34-3.266,4.463,4.463,0,0,1-1.369-3.355,1.743,1.743,0,0,0-.4-1.19s-.531-1.72-.885-1.9a.249.249,0,0,1-.076-.059c-.246-.261-.057-1-.057-1v-.022a6.1,6.1,0,0,0,.214-1.568,11.323,11.323,0,0,1,.044-1.765,14.227,14.227,0,0,0,.708-4.5,1.548,1.548,0,0,1,1.72-1.811l5.724-.059h.651a4.8,4.8,0,0,0,.737-.789,1.578,1.578,0,0,0,1.266-.31A3.984,3.984,0,0,0,562.25,456.536Zm-26.619,17.2.042-1.008.224.192a1.612,1.612,0,0,1,0,.806.86.86,0,0,1-.491.56.552.552,0,0,0-.081.049l-.057-.575c.234-.015.364-.027.364-.027Z" transform="translate(641.956 506.989)"/><path class="s" d="M628.714,459.633s3.259,2.1,4.492.983a3.988,3.988,0,0,0,.914-3.6c-.167-.339-1.494-4.7-1.494-4.7l-2.563-6.459s-1.558-8.5-3.883-6.39,1.253,7.208,1.253,7.208,1.475,3.718,1.391,4.463a16.529,16.529,0,0,0,.816,3.473Z" transform="translate(570.346 505.845)"/><path class="t" d="M594.881,826.666c-.025.106-.052.214-.086.324-.3,1.035-.875.8-2.556,2.5a3.374,3.374,0,0,1-3.342.939.4.4,0,0,1-.3-.42l.211-2.76.1-1.329s2.676.752,4.04-.2c.044-.032.088-.064.13-.1l.039-.032a1.094,1.094,0,0,1,1.762,1.076Z" transform="translate(598.102 214.549)"/><path class="u" d="M560.717,822.422c-.022.106-.052.214-.083.324-.3,1.035-.875.8-2.556,2.5a3.384,3.384,0,0,1-3.342.941.4.4,0,0,1-.3-.423l.209-2.76.1-1.33s2.676.752,4.038-.2c.047-.032.089-.064.133-.1l.039-.032a1.091,1.091,0,0,1,1.76,1.076Z" transform="translate(623.868 217.751)"/><g class="v" transform="translate(1178.016 1040.532)"><path class="w" d="M557.067,828.007l.111,1.433c-1.539,1.524-3.367-.737-3.908-1.489C554.678,828.672,557.067,828.007,557.067,828.007Z" transform="translate(-553.27 -827.95)"/></g><g class="v" transform="translate(1186.909 1040.271)"><path class="x" d="M593.395,827.789l.2-.133a2.9,2.9,0,0,1-4.139.762l.1-1.33s2.676.752,4.04-.2C593.493,827.409,593.395,827.789,593.395,827.789Z" transform="translate(-589.46 -826.89)"/></g><path class="y" d="M562.041,632.123c-1.076,2.669-2.153,11.612-2.288,12.647s-.1,5.272-.1,5.272l-.28,10.41a28.126,28.126,0,0,1-1.008,4.571,20.494,20.494,0,0,0-.169,3.637,12.309,12.309,0,0,1-.438,3.271l.2-.133c-1.684,2.534-4.34.631-4.34.631s-.639-3.07.032-3.836-.233-3.136-.233-3.136.334-12.313.437-12.88a12.481,12.481,0,0,0-.875-3.738c-.492-1.435.268-7.107.438-8.142a43.128,43.128,0,0,0-.246-6.707,38.036,38.036,0,0,1,.2-5.006c-.673-2-1.212-.2-1.212-.2l-.538,5.24-.553,10.757s.069,3.269-.437,4.2a16.328,16.328,0,0,0-.941,3.337l.246,12.146a29.7,29.7,0,0,0,.135,3.5,14.392,14.392,0,0,1-.371,3.47c-1.882,4.4-4.915-.366-4.915-.366s.133-.737.4-.836-.1-1.9-.3-2.212a9.756,9.756,0,0,1,.032-2.458s-.233-1.966-.6-4.34a80.219,80.219,0,0,1-.034-12.079,22.062,22.062,0,0,0,.437-3.195,6.524,6.524,0,0,1,.069-2.571c.337-1.069-.808-5.571-.808-6.073a20.322,20.322,0,0,0-.674-3.932,1.967,1.967,0,0,1-.246-.934,14.758,14.758,0,0,0-.607-2.669,19.094,19.094,0,0,1,0-5.8c.059-.538.108-.88.108-.88s19.309-3.1,20.084-2.4a3.018,3.018,0,0,1,.371,1.538C563.236,624.86,562.865,630.078,562.041,632.123Z" transform="translate(633.077 368.974)"/><g class="v" transform="translate(1187.816 1016.047)"><path class="z" d="M593.15,728.374a18,18,0,0,0,3.006.022C596.949,728.239,593.15,728.374,593.15,728.374Z" transform="translate(-593.15 -728.32)"/></g><g class="v" transform="translate(1187.974 1017.346)"><path class="aa" d="M593.79,733.609s2.949.511,3.1.246S593.79,733.609,593.79,733.609Z" transform="translate(-593.79 -733.609)"/></g><g class="v" transform="translate(1178.981 1016.813)"><path class="ab" d="M557.2,731.44a8.163,8.163,0,0,1,2.354.445C560.385,732.263,557.2,731.44,557.2,731.44Z" transform="translate(-557.2 -731.44)"/></g><path class="ac" d="M534.66,579.047s.246,4.65.113,5.471a31.405,31.405,0,0,0,.983,4.716,13.543,13.543,0,0,0,1.413,2.158l1.322-9.231-.307-3.16Z" transform="translate(638.782 400.349)"/><ellipse class="ad" cx="5.181" cy="5.139" rx="5.181" ry="5.139" transform="translate(1182.166 947.938)"/><path class="ae" d="M569.895,481.346a20.376,20.376,0,0,1-3.229,4.606c-1.615,1.47,9.688,3.136,9.956,3.136s-2.018-6.672-1.615-7.474S569.895,481.346,569.895,481.346Z" transform="translate(614.761 474.135)"/><g class="v" transform="translate(1175.531 989.553)"><path class="af" d="M563.723,622.156a3.362,3.362,0,0,1-.831.462c-2.062.8-4.306,1.914-5.832,1.475a16.217,16.217,0,0,0-4.753,0s-6.505-.536-7.806-.224a2.52,2.52,0,0,1-1.342.034c.059-.538.108-.88.108-.88s19.31-3.1,20.084-2.4A2.952,2.952,0,0,1,563.723,622.156Z" transform="translate(-543.16 -620.518)"/></g><path class="ag" d="M557.586,525.849a3.75,3.75,0,0,1-2.244,3.025c-2.064.814-4.306,1.914-5.832,1.475a16.218,16.218,0,0,0-4.753,0s-6.505-.536-7.805-.224-1.966-.089-1.57-.669.361-2.49.361-3.291-.45-4.05-.047-4.628.762-2.8,1.57-3.158a.872.872,0,0,0,.5-.565,1.59,1.59,0,0,0,0-.814s-.135-.111-.324-.278c-.474-.42-1.28-1.2-1.022-1.457.359-.356,0-2.671,0-2.671s-.853-1.779-.538-2.445-2.735-4.178-2.735-4.178,0-6.051,3.686-6.318c0,0,2.6.091,2.915-1.067s2.377-1.826,2.377-1.826l4.709,1.025s4.178.89,4.935.356,1.347.71,1.347.71,2.6.135,2.871.669-.853,5.739-.853,5.739a1.568,1.568,0,0,0-1.75,1.826,14.246,14.246,0,0,1-.718,4.537,10.58,10.58,0,0,0-.044,1.779,5.7,5.7,0,0,1-.219,1.58V515s-.187.737.057,1.01a.365.365,0,0,0,.079.059c.359.177.9,1.912.9,1.912a1.753,1.753,0,0,1,.405,1.2,4.488,4.488,0,0,0,1.389,3.382A13.5,13.5,0,0,1,557.586,525.849Z" transform="translate(639.921 462.378)"/><path class="ah" d="M534.79,542.761v.189l-.084,2.082a17.519,17.519,0,0,1-4.261-.157c-1.5-.379-.868-2.023-.809-2.367h0c.044-.312.447-2.915.447-3.337s0-2.158-.066-2.949a19.417,19.417,0,0,1,.337-3.025l.29-.356,3.163,1.2Z" transform="translate(642.709 435.165)"/><g class="v" transform="translate(1172.157 977.678)"><path class="ai" d="M534.77,572.642l-.084,2.082a17.512,17.512,0,0,1-4.262-.157c-1.5-.378-.868-2.022-.809-2.367Z" transform="translate(-529.432 -572.2)"/></g><g class="v" transform="translate(1177.379 977.349)"><path class="aj" d="M551,573.7a1.591,1.591,0,0,0,0-.814s-.135-.111-.324-.278c2.376-.327,11.782-1.61,14.952-1.747v.022s-.187.737.057,1.01Z" transform="translate(-550.68 -570.86)"/></g><g class="v" transform="translate(1191.07 981.807)"><path class="ak" d="M607.982,589s.582,3.271-1.592,4.424A9.94,9.94,0,0,0,607.982,589Z" transform="translate(-606.39 -589)"/></g><g class="v" transform="translate(1178.421 985.852)"><path class="al" d="M554.92,605.92s5.247-.89,6.279-.2S554.92,605.92,554.92,605.92Z" transform="translate(-554.92 -605.458)"/></g><g class="v" transform="translate(1190.418 966.049)"><path class="am" d="M604.161,524.88s-.806,3.291-.2,4.048S604.161,524.88,604.161,524.88Z" transform="translate(-603.735 -524.88)"/></g><g class="v" transform="translate(1175.614 963.355)"><path class="an" d="M543.523,513.92a3.244,3.244,0,0,1,.292,2.492C543.37,517.675,543.523,513.92,543.523,513.92Z" transform="translate(-543.497 -513.92)"/></g><path class="ao" d="M537.4,557.55s.941.558.627,1.425S537.4,557.55,537.4,557.55Z" transform="translate(636.715 416.528)"/><g class="v" transform="translate(1174.017 971.542)"><path class="ap" d="M537,547.23s.875.469.983,1.158S537,547.23,537,547.23Z" transform="translate(-537 -547.23)"/></g><g class="v" transform="translate(1186.988 997.411)"><path class="aq" d="M589.78,653.227s5.5.558,6.594-.737C596.374,652.495,591.417,653.473,589.78,653.227Z" transform="translate(-589.78 -652.49)"/></g><g class="v" transform="translate(1177.502 997.838)"><path class="ar" d="M551.18,654.23s5.9,1.379,7.063.287C558.243,654.518,553.176,654.9,551.18,654.23Z" transform="translate(-551.18 -654.23)"/></g><g class="v" transform="translate(1187.414 999.952)"><path class="as" d="M591.51,662.83s2.458,0,3.61.066S591.51,662.83,591.51,662.83Z" transform="translate(-591.51 -662.83)"/></g><g class="v" transform="translate(1177.905 1000.996)"><path class="at" d="M552.82,667.08a3.279,3.279,0,0,0,2.578,1.113C556.764,667.95,552.82,667.08,552.82,667.08Z" transform="translate(-552.82 -667.08)"/></g><path class="au" d="M545.55,435.955a4.53,4.53,0,0,0-.492,1.91,7.943,7.943,0,0,1-2.153,4.225c-1.076,1.135-2.554,2.163-2.831,3.549-.263,1.317.632,2.583,1.1,3.863,1.229,3.379-.492,6.921-1,10.408-.138.963.03,2.195,1.229,2.514a7.094,7.094,0,0,1,1.135.246,1.353,1.353,0,0,1,.673,1.059,16.137,16.137,0,0,1,.307,4.357,2.4,2.4,0,0,0,.666,2.325,3.965,3.965,0,0,0,1.293.511c1.229.329,2.819.592,3.647-.177.349-.322.491-.779.912-1.035.649-.381,1.57-.123,2.389-.084a4.338,4.338,0,0,0,3.885-2.069,5.5,5.5,0,0,0,.359-3.8,23.635,23.635,0,0,1-.7-3.819,2.211,2.211,0,0,1,.29-1.3c.491-.767,1.664-1.116,2.457-1.72,1.489-1.13,1.475-2.984.944-4.534s-1.514-3.033-1.634-4.635a1.762,1.762,0,0,1,.221-1.121,4.367,4.367,0,0,1,.9-.84c2.175-1.821,1.919-4.815.12-6.862C557.283,436.651,548.266,431.76,545.55,435.955Z" transform="translate(634.734 509.479)"/><g class="v" transform="translate(1174.694 950.681)"><path class="av" d="M541.245,483.557a8.374,8.374,0,0,0-.342-4.011c-.246-.646-.582-1.29-.831-1.937a2.752,2.752,0,0,0-.27.737c-.265,1.315.632,2.581,1.1,3.863A7,7,0,0,1,541.245,483.557Z" transform="translate(-539.754 -473.86)"/><path class="aw" d="M543.615,541.092a16.05,16.05,0,0,0-.31-4.357,1.357,1.357,0,0,0-.671-1.059,6.669,6.669,0,0,0-1.138-.246,1.551,1.551,0,0,1-1.047-.86c-.066.339-.128.678-.177,1.015-.14.963.027,2.195,1.229,2.514a7.181,7.181,0,0,1,1.138.246,1.356,1.356,0,0,1,.671,1.059,15.978,15.978,0,0,1,.29,2.013C543.6,541.311,543.615,541.2,543.615,541.092Z" transform="translate(-540.113 -516.821)"/><path class="ax" d="M566.662,555.983a4.335,4.335,0,0,1-3.883,2.069c-.818-.039-1.74-.3-2.389.084-.433.246-.565.713-.912,1.035-.828.769-2.418.506-3.647.177a3.93,3.93,0,0,1-1.293-.511,1.587,1.587,0,0,1-.637-1.027c0,.457,0,.917-.03,1.374a2.4,2.4,0,0,0,.666,2.322,3.93,3.93,0,0,0,1.293.511c1.229.332,2.819.592,3.647-.177.346-.322.492-.777.912-1.032.649-.383,1.57-.125,2.389-.084a4.33,4.33,0,0,0,3.883-2.072,5.373,5.373,0,0,0,.388-3.652A3.975,3.975,0,0,1,566.662,555.983Z" transform="translate(-550.382 -532.23)"/><path class="ay" d="M614.085,464.328a4.387,4.387,0,0,0-.907.841,1.762,1.762,0,0,0-.219,1.121,5.792,5.792,0,0,0,.307,1.428,6.153,6.153,0,0,1,.818-.72,4.293,4.293,0,0,0,1.352-4.647,4.27,4.27,0,0,1-1.352,1.978Z" transform="translate(-594.956 -462.35)"/><path class="az" d="M607.362,511.225c-.8.6-1.966.951-2.458,1.72a2.2,2.2,0,0,0-.29,1.3,8.9,8.9,0,0,0,.192,1.548,1.736,1.736,0,0,1,.1-.174c.492-.764,1.661-1.116,2.458-1.72a3.679,3.679,0,0,0,1.072-4.124A3.113,3.113,0,0,1,607.362,511.225Z" transform="translate(-588.668 -498.116)"/></g><path class="ba" d="M629.063,510.322a7.865,7.865,0,0,1-2.109,3.224h-.661l-5.82.059-.673-1.823.944-3.932.58.037a3.367,3.367,0,0,0,1.121.356,6.21,6.21,0,0,1,1.5.088.193.193,0,0,0,.111.015c.219-.022.452-.349.452-.349S629.982,508.007,629.063,510.322Z" transform="translate(574.566 454.014)"/><g class="v" transform="translate(1198.625 961.991)"><path class="bb" d="M642.134,510.715a7.865,7.865,0,0,1-2.109,3.224h-.661a30.476,30.476,0,0,1,1.357-3.232c.285-.432-2.165-1.435-3.591-1.988.219-.022.452-.349.452-.349S643.053,508.4,642.134,510.715Z" transform="translate(-637.13 -508.37)"/></g><path class="bc" d="M628.181,462.763s3.195,2.079,4.424.968a3.936,3.936,0,0,0,.9-3.571c-.165-.337-1.475-4.669-1.475-4.669l-2.524-6.407s-1.531-8.432-3.817-6.328,1.229,7.152,1.229,7.152,1.443,3.686,1.369,4.424a17.036,17.036,0,0,0,.8,3.441Z" transform="translate(570.707 503.364)"/><path class="i" d="M594.89,826.822c-.025.1-.054.211-.084.322-.3,1.025-.862.794-2.517,2.482a3.308,3.308,0,0,1-3.288.931.4.4,0,0,1-.295-.418l.206-2.738.1-1.318s2.635.737,3.974-.2c.044-.032.088-.064.13-.1a.224.224,0,0,0,.037-.032,1.077,1.077,0,0,1,1.735,1.069Z" transform="translate(598.019 214.425)"/><path class="i" d="M561.247,822.621c-.022.1-.052.209-.081.319-.3,1.027-.863.794-2.517,2.482a3.3,3.3,0,0,1-3.288.931.4.4,0,0,1-.295-.418l.206-2.738.1-1.317s2.635.737,3.974-.2a1.539,1.539,0,0,0,.13-.1l.037-.034a1.076,1.076,0,0,1,1.733,1.072Z" transform="translate(623.392 217.594)"/><path class="k" d="M557.686,828.172l.108,1.423c-1.511,1.509-3.313-.737-3.844-1.475C555.341,828.828,557.686,828.172,557.686,828.172Z" transform="translate(624.233 212.454)"/><path class="k" d="M593.423,827.942l.2-.13a2.84,2.84,0,0,1-4.072.754l.1-1.317s2.635.737,3.974-.2C593.519,827.564,593.423,827.942,593.423,827.942Z" transform="translate(597.382 213.261)"/><path class="bd" d="M562.614,633.757c-1.059,2.647-2.118,11.516-2.249,12.534s-.1,5.228-.1,5.228L560,661.84a28.441,28.441,0,0,1-.983,4.534,20.443,20.443,0,0,0-.165,3.608,12.2,12.2,0,0,1-.43,3.244l.2-.133c-1.654,2.514-4.269.629-4.269.629s-.629-3.045.032-3.807-.231-3.111-.231-3.111.332-12.212.43-12.78a13.273,13.273,0,0,0-.86-3.706c-.462-1.423.265-7.051.43-8.076a44.625,44.625,0,0,0-.231-6.653,39.852,39.852,0,0,1,.2-4.964c-.661-1.986-1.19-.2-1.19-.2l-.531,5.2-.573,10.668s.066,3.242-.43,4.178a16.5,16.5,0,0,0-.924,3.3l.231,12.042a30.179,30.179,0,0,0,.133,3.475,14.518,14.518,0,0,1-.364,3.441c-1.853,4.367-4.832-.364-4.832-.364s.133-.737.4-.828-.1-1.887-.3-2.185a9.875,9.875,0,0,1,.034-2.458s-.246-1.954-.6-4.3a81.874,81.874,0,0,1-.032-11.981,21.947,21.947,0,0,0,.43-3.178,6.5,6.5,0,0,1,.066-2.549c.332-1.059-.794-5.527-.794-6.024a20.334,20.334,0,0,0-.663-3.905,1.968,1.968,0,0,1-.231-.927,14.611,14.611,0,0,0-.595-2.647,19.1,19.1,0,0,1,0-5.748c.059-.533.108-.872.108-.872s19-3.077,19.759-2.381a3.044,3.044,0,0,1,.364,1.526C563.791,626.541,563.427,631.715,562.614,633.757Z" transform="translate(632.394 367.711)"/><path class="k" d="M593.19,729.338a17.632,17.632,0,0,0,2.949.022C596.9,729.2,593.19,729.338,593.19,729.338Z" transform="translate(594.636 286.999)"/><path class="k" d="M593.82,734.529s2.89.509,3.045.246S593.82,734.529,593.82,734.529Z" transform="translate(594.161 283.043)"/><path class="k" d="M557.82,732.38a8.006,8.006,0,0,1,2.315.44C560.951,733.194,557.82,732.38,557.82,732.38Z" transform="translate(621.314 284.664)"/><path class="bc" d="M535.64,581.234s.246,4.611.111,5.426a30.9,30.9,0,0,0,.971,4.67,13.535,13.535,0,0,0,1.391,2.141l1.3-9.147-.307-3.133Z" transform="translate(638.043 398.698)"/><circle class="be" cx="5.097" cy="5.097" r="5.097" transform="translate(1182.267 948.732)"/><path class="be" d="M570.3,484.327a20.171,20.171,0,0,1-3.178,4.566c-1.59,1.457,9.533,3.111,9.8,3.111s-1.986-6.621-1.59-7.415S570.3,484.327,570.3,484.327Z" transform="translate(614.414 471.887)"/><path class="k" d="M564.231,623.979a3.328,3.328,0,0,1-.816.46c-2.03.794-4.237,1.9-5.738,1.455a15.572,15.572,0,0,0-4.67,0s-6.39-.528-7.678-.221a2.475,2.475,0,0,1-1.33.027c.059-.533.108-.872.108-.872s19-3.077,19.759-2.382A3.014,3.014,0,0,1,564.231,623.979Z" transform="translate(631.737 367.658)"/><path class="i" d="M558.183,528.43a3.7,3.7,0,0,1-2.212,3c-2.035.789-4.237,1.9-5.738,1.457a15.652,15.652,0,0,0-4.669,0s-6.39-.531-7.678-.221-1.941-.089-1.546-.664.354-2.458.354-3.264-.442-4.016-.044-4.591.737-2.78,1.546-3.133a.86.86,0,0,0,.492-.56,1.612,1.612,0,0,0,0-.806s-.133-.111-.32-.275c-.467-.418-1.258-1.192-1-1.445.352-.354,0-2.649,0-2.649s-.84-1.765-.531-2.425-2.7-4.148-2.7-4.148,0-6,3.62-6.267c0,0,2.558.088,2.868-1.059s2.34-1.809,2.34-1.809l4.633,1.015s4.1.882,4.854.354,1.315.7,1.315.7,2.558.133,2.824.661-.838,5.692-.838,5.692a1.548,1.548,0,0,0-1.72,1.811,14.222,14.222,0,0,1-.708,4.5,10.639,10.639,0,0,0-.044,1.765,5.765,5.765,0,0,1-.214,1.568v.022s-.182.737.057,1a.245.245,0,0,0,.076.059c.354.174.885,1.9.885,1.9a1.742,1.742,0,0,1,.4,1.189,4.463,4.463,0,0,0,1.369,3.355A13.664,13.664,0,0,1,558.183,528.43Z" transform="translate(639.181 460.258)"/><path class="i" d="M535.825,545.21v.187l-.081,2.064a16.918,16.918,0,0,1-4.178-.155c-1.475-.376-.855-2.005-.8-2.347.044-.31.442-2.893.442-3.31s0-2.141-.066-2.934a19.21,19.21,0,0,1,.329-3l.287-.354,3.111,1.192Z" transform="translate(641.851 433.264)"/><path class="k" d="M535.795,574.857l-.081,2.064a16.922,16.922,0,0,1-4.178-.155c-1.475-.376-.855-2.005-.8-2.347Z" transform="translate(641.874 403.804)"/><path class="k" d="M551.679,575.962a1.614,1.614,0,0,0,0-.806s-.133-.111-.319-.275c2.34-.324,11.593-1.595,14.711-1.72v.022s-.182.737.057,1Z" transform="translate(626.186 404.754)"/><path class="k" d="M607.776,591.06s.575,3.244-1.566,4.392A9.851,9.851,0,0,0,607.776,591.06Z" transform="translate(584.816 391.253)"/><path class="k" d="M555.57,607.883s5.161-.882,6.179-.2S555.57,607.883,555.57,607.883Z" transform="translate(623.011 378.911)"/><path class="k" d="M604.021,527.5s-.794,3.266-.2,4.016S604.021,527.5,604.021,527.5Z" transform="translate(586.784 439.193)"/><path class="k" d="M544.353,516.64a3.169,3.169,0,0,1,.287,2.47C544.19,520.368,544.353,516.64,544.353,516.64Z" transform="translate(631.493 447.384)"/><path class="bf" d="M538.34,559.91s.926.553.617,1.413S538.34,559.91,538.34,559.91Z" transform="translate(636.006 414.748)"/><path class="k" d="M538,549.68s.86.462.971,1.145S538,549.68,538,549.68Z" transform="translate(636.263 422.464)"/><path class="k" d="M589.87,654.787s5.407.553,6.486-.737C596.356,654.06,591.48,655.021,589.87,654.787Z" transform="translate(597.141 343.744)"/><path class="k" d="M551.89,655.79s5.8,1.369,6.95.287C558.84,656.087,553.854,656.454,551.89,655.79Z" transform="translate(625.786 342.432)"/><path class="k" d="M591.57,664.32s2.428,0,3.554.066S591.57,664.32,591.57,664.32Z" transform="translate(595.858 335.998)"/><path class="k" d="M553.51,668.54a3.21,3.21,0,0,0,2.536,1.1C557.391,669.4,553.51,668.54,553.51,668.54Z" transform="translate(624.565 332.815)"/><path class="bg" d="M546.3,439.279a4.689,4.689,0,0,0-.491,1.895,7.9,7.9,0,0,1-2.119,4.178c-1.057,1.125-2.509,2.145-2.785,3.519-.258,1.3.622,2.561,1.084,3.831,1.229,3.35-.492,6.864-.983,10.322-.138.956.027,2.177,1.2,2.495a6.466,6.466,0,0,1,1.121.246,1.342,1.342,0,0,1,.659,1.049,16.088,16.088,0,0,1,.3,4.323,2.394,2.394,0,0,0,.654,2.308,3.953,3.953,0,0,0,1.273.506c1.209.327,2.772.585,3.588-.177.342-.319.469-.772.9-1.025.639-.379,1.546-.123,2.349-.084a4.259,4.259,0,0,0,3.822-2.052,5.5,5.5,0,0,0,.354-3.77,23.5,23.5,0,0,1-.688-3.79,2.19,2.19,0,0,1,.285-1.283c.492-.762,1.634-1.108,2.418-1.706,1.475-1.121,1.46-2.949.929-4.5s-1.492-3.008-1.61-4.6a1.763,1.763,0,0,1,.216-1.111,4.465,4.465,0,0,1,.912-.814c2.141-1.806,1.887-4.775.118-6.805C557.853,439.98,548.981,435.131,546.3,439.279Z" transform="translate(634.105 506.956)"/><g class="v" transform="translate(1174.914 951.453)"><path d="M542.12,486.518a8.4,8.4,0,0,0-.339-3.979c-.231-.641-.57-1.278-.818-1.919a2.857,2.857,0,0,0-.265.737c-.258,1.3.622,2.561,1.084,3.831a6.878,6.878,0,0,1,.339,1.33Z" transform="translate(-540.651 -476.902)"/><path d="M544.433,543.581a16.093,16.093,0,0,0-.3-4.323,1.341,1.341,0,0,0-.659-1.049,6.471,6.471,0,0,0-1.121-.246,1.538,1.538,0,0,1-1.03-.853c-.066.334-.125.671-.175,1.005-.138.956.027,2.177,1.2,2.495a6.477,6.477,0,0,1,1.121.246,1.346,1.346,0,0,1,.659,1.052,16.166,16.166,0,0,1,.285,2C544.418,543.795,544.426,543.687,544.433,543.581Z" transform="translate(-540.992 -519.508)"/><path d="M567.145,558.316a4.257,4.257,0,0,1-3.822,2.052c-.8-.039-1.72-.295-2.35.083-.425.246-.555.705-.9,1.025-.816.762-2.379.5-3.588.177a3.876,3.876,0,0,1-1.271-.509,1.6,1.6,0,0,1-.629-1.018c0,.452,0,.907-.027,1.359a2.39,2.39,0,0,0,.656,2.308,3.931,3.931,0,0,0,1.271.506c1.209.327,2.772.585,3.588-.174.342-.322.472-.774.9-1.027.639-.378,1.546-.123,2.35-.083a4.257,4.257,0,0,0,3.822-2.052,5.361,5.361,0,0,0,.381-3.623A4,4,0,0,1,567.145,558.316Z" transform="translate(-551.122 -534.767)"/><path d="M613.779,467.451a4.327,4.327,0,0,0-.892.833,1.761,1.761,0,0,0-.216,1.111,5.943,5.943,0,0,0,.3,1.418,5.829,5.829,0,0,1,.8-.715,4.288,4.288,0,0,0,1.33-4.608A4.222,4.222,0,0,1,613.779,467.451Z" transform="translate(-594.959 -465.49)"/><path d="M607.169,513.963c-.784.6-1.927.944-2.418,1.7a2.213,2.213,0,0,0-.285,1.285,9.018,9.018,0,0,0,.189,1.536,1.19,1.19,0,0,1,.1-.172c.492-.762,1.634-1.108,2.418-1.706a3.669,3.669,0,0,0,1.054-4.089A3.1,3.1,0,0,1,607.169,513.963Z" transform="translate(-588.777 -500.962)"/></g><path class="i" d="M628.523,513.04a7.746,7.746,0,0,1-2.077,3.195h-.651l-5.724.059-.661-1.809.926-3.905.573.022a3.3,3.3,0,0,0,1.1.354,6,6,0,0,1,1.474.089.205.205,0,0,0,.108.015c.216-.022.442-.347.442-.347S629.425,510.745,628.523,513.04Z" transform="translate(574.86 451.954)"/><path class="k" d="M641.382,513.493a7.747,7.747,0,0,1-2.077,3.195h-.651a29.967,29.967,0,0,1,1.337-3.195c.28-.42-2.131-1.423-3.532-1.966.216-.022.442-.347.442-.347S642.284,511.2,641.382,513.493Z" transform="translate(562.001 451.502)"/></g></svg>