<svg xmlns="http://www.w3.org/2000/svg" width="261.494" height="195.421" viewBox="0 0 261.494 195.421"><defs><style>.a{fill:#e6e6e6;}.b{fill:#fff;}.c{fill:#5abb67;}.d{fill:#407fc2;}.e{fill:#2e2e2e;}.f{fill:#f2f2f2;}.g{fill:#ffb8b8;}.h{fill:#2c2c36;}.i{fill:#ffdbce;}.j{fill:#2061a7;}.k{fill:#50c4d0;}.l{fill:#6ce9f5;}</style></defs><g transform="translate(-328.613 -261.378)"><rect class="a" width="230.215" height="147.44" transform="translate(328.711 261.509)"/><rect class="b" width="217.049" height="56.205" transform="translate(335.294 280.001)"/><rect class="c" width="70.881" height="2.635" transform="translate(389.283 297.731)"/><rect class="a" width="57.767" height="2.635" transform="translate(389.283 306.786)"/><rect class="a" width="50.897" height="2.635" transform="translate(389.283 324.828)"/><rect class="d" width="18.735" height="18.735" transform="translate(503.255 299.985)"/><rect class="b" width="217.049" height="56.205" transform="translate(335.294 344.013)"/><path class="a" d="M485.666,400.792a15.53,15.53,0,0,0-25.07-2.316l-1-.873a16.854,16.854,0,0,1,27.211,2.513Z" transform="translate(-28.425 -36.836)"/><path class="c" d="M567.894,444.5l-1.1-.741a15.537,15.537,0,0,0,.476-16.549l1.142-.676A16.865,16.865,0,0,1,567.894,444.5Z" transform="translate(-110.027 -63.252)"/><path class="c" d="M472.734,506.883a16.882,16.882,0,0,1-12.558-5.614l.989-.886a15.529,15.529,0,0,0,24.466-1.7l1.1.741A16.845,16.845,0,0,1,472.734,506.883Z" transform="translate(-28.866 -118.175)"/><rect class="c" width="18.735" height="18.735" transform="translate(503.255 361.187)"/><rect class="e" width="230.215" height="9.78" transform="translate(328.613 261.378)"/><circle class="b" cx="1.813" cy="1.813" r="1.813" transform="translate(334.068 264.565)"/><circle class="b" cx="1.813" cy="1.813" r="1.813" transform="translate(340.949 264.565)"/><circle class="b" cx="1.813" cy="1.813" r="1.813" transform="translate(347.829 264.565)"/><rect class="a" width="45.901" height="2.635" transform="translate(389.283 288.12)"/><rect class="d" width="33.723" height="2.635" transform="translate(389.283 315.807)"/><rect class="a" width="5.621" height="5.621" transform="translate(368.362 287.183)"/><rect class="c" width="5.621" height="5.621" transform="translate(368.362 296.238)"/><rect class="a" width="5.621" height="5.621" transform="translate(368.362 305.293)"/><rect class="d" width="5.621" height="5.621" transform="translate(368.362 314.349)"/><rect class="a" width="5.621" height="5.621" transform="translate(368.362 323.404)"/><rect class="d" width="5.621" height="5.621" transform="translate(378.042 349.008)"/><rect class="c" width="5.621" height="5.621" transform="translate(368.362 349.008)"/><path class="c" d="M446.473,438.334a16.853,16.853,0,0,1-.138-22.328l1,.873a15.526,15.526,0,0,0,.127,20.569Z" transform="translate(-15.163 -55.239)"/><rect class="a" width="18.735" height="18.735" transform="translate(367.581 373.364)"/><path class="f" d="M995.491,754.5c-1.939,21.825-103.708,19.993-103.553,0C893.877,732.673,995.645,734.505,995.491,754.5Z" transform="translate(-405.385 -313.388)"/><path class="g" d="M768.963,555.477l-1.981,4.293-3.633-.33-2.311-7.6,3.632-1.981Z" transform="translate(-218.411 -129.568)"/><path class="g" d="M811.99,596.6l.078,2.992-5.614.33v-3.633Z" transform="translate(-248.966 -160.802)"/><path class="h" d="M784.283,421.265l-1.321,26.418,3.3,28.73-9.907,1.321-6.274-36.326L768.1,416.642Z" transform="translate(-223.163 -39.937)"/><path class="e" d="M955.866,497.652s3.963,26.088-4.293,34.674S932.09,556.1,932.09,556.1l-7.926-9.907,20.144-21.465-3.963-14.53-16.181-7.6,2.642-18.163,23.777-.33Z" transform="translate(-379.225 -125.901)"/><ellipse class="i" cx="7.265" cy="7.265" rx="7.265" ry="7.265" transform="translate(549.892 296.789)"/><path class="i" d="M962.348,323.643s.33,10.237,1.981,11.558-5.944,6.935-5.944,6.935l-4.953-7.926v-7.265Z" transform="translate(-398.917 -17.938)"/><path class="j" d="M792.8,229.595l4.009-6.054,2.265,3.082,3.3,9.247-2.642,36-15.521.33-1.981-41.279,4.953-5.944Z" transform="translate(-232.67 89.98)"/><path class="k" d="M902.822,372.417l-2.642-.33s-.66.33-.991,2.642-4.293,22.786-4.293,22.786l5.284,25.1,5.944-7.926-3.633-13.87,3.633-13.87Z" transform="translate(-359.534 -50.531)"/><path class="k" d="M857.851,248.1h1.981l4.954,26.748-4.623,20.8-4.624-7.6,1.321-8.256-.66-7.265-2.312-4.293Z" transform="translate(-280.88 73.457)"/><path class="e" d="M912.788,681.758s1.982-.66,1.982.66a29.964,29.964,0,0,1-1.321,5.284s1.981,12.219-.991,11.558-5.284-6.274-5.614-7.925-1.981-10.237-1.981-10.237-2.642-6.274-.991-6.6,6.274-1.651,6.274-1.651S907.5,681.1,912.788,681.758Z" transform="translate(-365.208 -252.876)"/><path class="e" d="M958.7,727.913s5.284-3.3,6.274-.661A27.749,27.749,0,0,1,966.3,733.2s1.321,4.293-3.963,3.633-4.623-.661-4.953-2.642S958.7,727.913,958.7,727.913Z" transform="translate(-401.543 -288.795)"/><path class="e" d="M948.145,295.445l-1.321-.33s-.991-5.614-3.3-4.953-8.256,1.321-8.256-1.321,5.614-4.953,8.916-4.623,8.916,1.321,8.586,6.274a33.239,33.239,0,0,1-2.461,9.772l-.172-2.937Z" transform="translate(-386.695 8.609)"/><path class="l" d="M793.363,236.5l5.614-3.963-5.614-4.623-1.949,2.339Z" transform="translate(-238.847 87.038)"/><path class="l" d="M819.481,233.454l-4.953-3.633,3.963-5.944,2.312,2.972Z" transform="translate(-254.398 89.754)"/><path class="k" d="M912.053,357.488l10.567-4.293,2.477-1.816,7.43,32.858,4.953-14.86L936,350.388l13.7,7.1-4.623,22.456-.661,8.586,1.981,6.935s6.935,4.953,4.623,10.237-4.953,5.614-4.953,5.614-11.228-10.567-11.888-13.209-1.651-7.265-1.651-7.265-5.614,21.135-12.219,20.8-6.6-7.265-6.6-7.265l1.651-7.265,2.642-7.6-1.321-12.549Z" transform="translate(-371.077 -35.932)"/></g></svg>