<svg xmlns="http://www.w3.org/2000/svg" width="237.067" height="206.49" viewBox="0 0 237.067 206.49"><defs><style>.a{fill:#2e2e2e;}.b{fill:#2f2e41;}.c{fill:#fff;}.d,.e{fill:#50c4d0;}.e{stroke:#50c4d0;}.f{fill:#5abb67;}.g{fill:#fad1c2;}.h{fill:#407fc2;}.i{opacity:0.4;}</style></defs><g transform="translate(-1035.109 -225.598)"><path class="a" d="M456.258,141.623h-1.131V110.648A17.927,17.927,0,0,0,437.2,92.721H371.577a17.927,17.927,0,0,0-17.927,17.927V280.576A17.927,17.927,0,0,0,371.577,298.5H437.2a17.927,17.927,0,0,0,17.927-17.927V163.671h1.131Z" transform="translate(728.768 132.877)"/><rect class="b" width="196.438" height="0.578" transform="translate(1035.109 422.931)"/><path class="c" d="M450.1,108.861h-8.566a6.361,6.361,0,0,1-5.889,8.763H398.045a6.36,6.36,0,0,1-5.889-8.763h-8a13.388,13.388,0,0,0-13.388,13.388V291.927a13.388,13.388,0,0,0,13.388,13.388H450.1a13.388,13.388,0,0,0,13.388-13.388V122.249A13.388,13.388,0,0,0,450.1,108.861Z" transform="translate(716.596 121.401)"/><path class="a" d="M230.894,723.317l-.31-.116c-.068-.026-6.851-2.625-10.029-8.517s-1.622-12.988-1.606-13.059l.073-.323.31.116c.068.026,6.851,2.625,10.029,8.517s1.622,12.988,1.606,13.059Zm-9.83-8.908c2.686,4.982,8.047,7.536,9.4,8.119.258-1.456,1.068-7.342-1.616-12.319s-8.046-7.535-9.4-8.119C219.19,703.547,218.381,709.432,221.064,714.409Z" transform="translate(846.916 -299.839)"/><path class="d" d="M202.462,734.54c5.71,3.436,7.91,10.259,7.91,10.259s-7.059,1.254-12.769-2.182-7.91-10.26-7.91-10.26S196.752,731.1,202.462,734.54Z" transform="translate(867.438 -321.762)"/><rect class="e" width="12.704" height="3.058" transform="translate(1104.007 292.029)"/><rect class="e" width="12.704" height="3.058" transform="translate(1104.007 336.863)"/><rect class="e" width="4.47" height="3.058" transform="translate(1156.234 292.029)"/><rect class="d" width="4.47" height="3.058" transform="translate(1165.173 292.029)"/><rect class="e" width="30.348" height="3.058" transform="translate(1121.181 292.029)"/><rect class="e" width="30.348" height="3.058" transform="translate(1121.181 336.863)"/><rect class="e" width="4.47" height="3.058" transform="translate(1140.236 311.791)"/><rect class="e" width="4.47" height="3.058" transform="translate(1140.236 356.625)"/><rect class="e" width="4.47" height="3.058" transform="translate(1149.176 311.791)"/><rect class="e" width="4.47" height="3.058" transform="translate(1149.176 356.625)"/><rect class="e" width="30.348" height="3.058" transform="translate(1105.183 311.791)"/><rect class="e" width="30.348" height="3.058" transform="translate(1105.183 356.625)"/><rect class="e" width="12.704" height="3.058" transform="translate(1140.472 298.852)"/><rect class="e" width="12.704" height="3.058" transform="translate(1140.472 343.686)"/><rect class="e" width="12.704" height="3.058" transform="translate(1157.645 298.852)"/><rect class="e" width="4.47" height="3.058" transform="translate(1096.949 298.852)"/><rect class="e" width="30.348" height="3.058" transform="translate(1105.889 298.852)"/><rect class="e" width="30.348" height="3.058" transform="translate(1105.889 343.686)"/><rect class="e" width="12.704" height="3.058" transform="translate(1126.827 308.497) rotate(180)"/><rect class="e" width="12.704" height="3.058" transform="translate(1126.827 353.331) rotate(180)"/><rect class="e" width="12.704" height="3.058" transform="translate(1109.653 308.497) rotate(180)"/><rect class="d" width="4.47" height="3.058" transform="translate(1170.349 308.497) rotate(180)"/><rect class="e" width="30.348" height="3.058" transform="translate(1161.409 308.497) rotate(180)"/><rect class="e" width="30.348" height="3.058" transform="translate(1161.409 353.331) rotate(180)"/><ellipse class="f" cx="11.559" cy="11.559" rx="11.559" ry="11.559" transform="translate(1122.163 378.334)"/><path class="a" d="M725.425,295.557c-3.354-5.667-9.99-5.932-9.99-5.932s-6.466-.827-10.614,7.8c-3.866,8.045-9.2,15.813-.859,17.7l1.507-4.691.933,5.04a32.632,32.632,0,0,0,3.57.061c8.935-.288,17.444.084,17.17-3.122C726.777,308.153,728.652,301.011,725.425,295.557Z" transform="translate(482.829 -7.112)"/><path class="g" d="M747.307,341.45s4.335,6.069,1.734,10.981,6.068,10.114,6.068,10.114l6.357-13.871s-7.513-4.913-5.49-9.536Z" transform="translate(448.867 -42.332)"/><ellipse class="g" cx="7.513" cy="7.513" rx="7.513" ry="7.513" transform="translate(1191.551 286.692)"/><path class="g" d="M667.328,320.388l6.279-8.1s2.211-8.491,5.413-8.061-1.265,10.183-1.265,10.183l-6.239,8.967Z" transform="translate(505.735 -17.498)"/><path class="g" d="M587.615,638.284l2.023,10.692,4.335,1.156-1.156-12.715Z" transform="translate(617.229 -227.621)"/><path class="g" d="M738.615,594.729l7.8,10.692,3.179,1.445,2.6-4.335-7.8-10.114Z" transform="translate(509.865 -195.625)"/><path class="f" d="M733.966,375.7l-4.82-6.346s-9.339,1.722-10.206,2.589,2.312,16.761,2.312,16.761.578,4.335,3.179,6.646l2.6,1.734,21.384-4.335.8-9.515a24.971,24.971,0,0,0-6.584-19.094h0l-3.721.509Z" transform="translate(469.145 -60.108)"/><path class="f" d="M671.4,361.853l-1.445-.578-6.646-.578s-2.312-.578-1.734-1.734,1.156-1.445,0-1.734-1.445-.578-1.156-1.445a11.5,11.5,0,0,1,2.023-2.6l-4.913-4.046s-.266.188-.7.536c-2.439,1.975-10.157,9.1-4.506,16.225,6.646,8.38,14.449,13.293,20.806,11.559Z" transform="translate(517.841 -49.442)"/><path class="h" d="M740.606,466.028v4.046s-2.6,4.913-1.734,9.536,1.156,6.935,1.156,6.935a39.452,39.452,0,0,0,2.023,11.559c2.023,5.779-4.624,43.635,3.757,44.213s13,1.156,15.6-1.734-4.335-52.593-4.335-52.593,23.7,49.415,28.609,47.392,17.339-6.646,15.894-9.247-37.856-60.4-37.856-60.4l-1.156-2.6Z" transform="translate(454.991 -130.499)"/><path class="b" d="M775.459,763.08s-4.624-.289-4.624,1.156-2.312,6.357-2.312,6.357-1.734,5.78,2.89,5.2,7.513-5.78,7.513-5.78l-1.156-5.49Z" transform="translate(434.009 -343.749)"/><path class="b" d="M951.028,720.993s-4.045-2.6-3.757-.867.578,6.357,2.6,6.646,8.091,2.023,8.38,2.6,7.224,2.89,7.224-.867-4.334-6.647-4.334-6.647l-4.912-3.757s-3.179-.289-3.757,1.734S951.028,720.993,951.028,720.993Z" transform="translate(306.699 -311.775)"/><ellipse class="a" cx="4.798" cy="4.798" rx="4.798" ry="4.798" transform="translate(1194.278 277.744)"/><path class="b" d="M736.5,273.6a4.8,4.8,0,0,1,4.293-4.771,4.8,4.8,0,1,0,0,9.542A4.8,4.8,0,0,1,736.5,273.6Z" transform="translate(457.272 7.677)"/><path class="a" d="M551.267,207.143l-6.556-3.434-9.054,1.405-1.873,8.273,4.663-.179,1.3-3.039v2.989l2.152-.083,1.249-4.839.78,5.151,7.649-.156Z" transform="translate(655.504 80.756)"/><path class="g" d="M737.656,462.661l-10.11.273s-8.627,1.679-8.143-1.8,8.9-2.264,8.9-2.264l9.213-1.405Z" transform="translate(468.723 -126.463)"/><path class="f" d="M783.892,362.383a2.158,2.158,0,0,1,2.38,1.482c1.979,6.237,8.077,27.11,2.019,29.973-7.136,3.373-12.343,3.224-12.343,3.224l-2.787-6.863,2.537-2.381,2.709-17.418,1.3-7.383Z" transform="translate(430.485 -58.842)"/><path class="i" d="M586.385,309.917l-1.156,11.559-10.114,4.335,11.27-2.6Z" transform="translate(626.117 5.239)"/></g></svg>