<svg xmlns="http://www.w3.org/2000/svg" width="261" height="168.064" viewBox="0 0 261 168.064"><defs><style>.a{fill:#f2f2f2;}.b{fill:#2e2e2e;}.c{fill:#fad1c2;}.d{fill:#5abb67;}.e{fill:#4185ce;}.f{fill:none;stroke:#2e2e2e;stroke-miterlimit:10;stroke-width:5px;}.g{opacity:0.1;}</style></defs><g transform="translate(-1758.971 -229.597)"><path class="a" d="M797.759,670.109l-1.29-16.029-3.685,16.95s.049,4.276.171,8.96h4.721C797.835,674.636,797.759,670.109,797.759,670.109Z" transform="translate(1163.011 -282.329)"/><path class="a" d="M526.672,672.655a32.613,32.613,0,0,1-.767-4.557l-.516-5.545c-.217-1.519-.44-2.856-.664-4.037-1.643-8.42-3.338-8.725-3.338-8.725-.073.056-.144.117-.217.181a5.445,5.445,0,0,0-.555.586c-2.7,3.433-4.533,12.335-5.5,18.242-.531,3.263-.8,5.61-.8,5.61s.241,1,.569,2.427h12.324A21.914,21.914,0,0,0,526.672,672.655Z" transform="translate(1367.79 -279.175)"/><path class="a" d="M352.55,148H170.45A39.566,39.566,0,0,0,131,187.45v89.163a39.566,39.566,0,0,0,39.45,39.45h57.716l-.745-3.506s-1.916-12.362,0-22a72.353,72.353,0,0,0,1.271-9.163,55.2,55.2,0,0,1,1.7-10.288c.051-.194.108-.387.16-.581-.467-.127-.682-.229-.573-.293.3-.177.464-.718.546-1.405a67.26,67.26,0,0,1,2.9-13.383c-1.936,1.215-3.221,1.344-4.062.873-2.957-.807-1.729-7.457-1.729-7.457s1.837-14.383,2.448-19.59c.351-2.993,4.847-4.69,8.827-5.611a4.42,4.42,0,0,0,.53-2.757c-.013-.064-.031-.126-.048-.189-.506-1.124-1.535-2.049-1.921-3.213a3.389,3.389,0,0,1-.357-1c-.342-2,1.524-3.72,2.062-5.639a4.645,4.645,0,0,1-1.193-1.913c-.82-1.682-.42-3.7,2.213-5.258.526-.311,1.083-.586,1.648-.849a2.565,2.565,0,0,1,.669-.307c1.884-.852,3.777-1.677,4.9-3.336a2.962,2.962,0,0,1,1.015-1.148,1.958,1.958,0,0,1,.7-.156c3.63-.279,6.917,2.834,10.529,2.388,1.094-.135,2.212-.6,3.262-.264a3.862,3.862,0,0,1,1.693,1.3,13.358,13.358,0,0,1,2.9,11c-.458,2.38-1.572,4.833-.769,7.123.59,1.682,2.169,3.048,2.18,4.828.009,1.464-1.03,2.633-2.035,3.773q.2.2.382.412c2.454,2.8,1.991,5.183,1.644,6.139h0l-1.262,12.18-1.064,8.171s-.263,3.354-2.742,4.089a4,4,0,0,1-2.911.044c-.807-.246-1.487-.491-2.064-.729a27.25,27.25,0,0,1,1.332,8.749c-.213,4.819.426,5.238.426,5.238a.867.867,0,0,1-.135.134,19.751,19.751,0,0,1-.077,17.047c-2.98,6.5.213,21.581.213,21.581s.227,2.353.329,4.973h45.713c-.727-6.935-1.6-13.877-1.989-14.653-.64-1.279.173-22.356.476-29.677-.135-.034-.266-.069-.39-.1-.216-.062-.41-.127-.59-.193a4.3,4.3,0,0,0,.117,1.107c.269.628-.376,1.089-1.473,1.4.638,3.113,1.426,8.9-1.24,10.026-2.742,1.154-2.8-5.858-2.646-9.513-.346.013-.693.019-1.035.019-3.293,0,.969-38.167.775-40.685s1.55-12.787,1.55-12.787.581-2.131,2.325-2.519,10.074-5.231,10.074-5.231a6.221,6.221,0,0,1,1.744-1.651v-.287a6.387,6.387,0,0,1,.691-.56c-.1-1.693-.331-3.877-.5-5.352a6.761,6.761,0,0,1-1.818-3.478,10.668,10.668,0,0,1-1.015-.9,5.286,5.286,0,0,1-1.3-3.3,10.425,10.425,0,0,1,.517-3.562,4.266,4.266,0,0,1,.449-1.088,3.937,3.937,0,0,1,1.014-1.006c.118-.087.239-.169.36-.251a3.393,3.393,0,0,1,1.1-1.244,5.921,5.921,0,0,1,3.444-.567h.053q.329-.053.66-.088a.677.677,0,0,0,.53-.519l.48.461q.36-.005.72.012a5.151,5.151,0,0,1,.373-.7l.263.751c.241.026.481.058.72.1l.565-.449c.042-.033.192.457.267.625.13.033.259.069.387.108.2-.009.422-.047.546-.045a3.653,3.653,0,0,1,1.947.485,4.181,4.181,0,0,1,1.237,1.428,9.253,9.253,0,0,1,1.381,3.985,4.62,4.62,0,0,1,.766,1.712c.32,1.945-1.528,3.57-1.895,5.507-.2,1.033.028,2.177-.5,3.088a3.226,3.226,0,0,1-.888.931,6.715,6.715,0,0,1-.656.432,16.831,16.831,0,0,0,.4,3.482l.249.956c.388.279.806.6,1.265.982,0,0,5.425,2.325,7.362,3.487,1.7,1.022,3.555,1.147,4.11,2.478l.153.041s1.937,21.5,2.131,25.186,2.519,26.348,2.131,27.317c-.143.359-1.057.77-2.16,1.1.644,2.942,1.683,9.341-1.133,10.527-2.855,1.2-2.8-6.453-2.626-9.949-.381-.034-.63-.134-.667-.319-.031-.157-.133-.869-.278-1.954l-.758.117-.164.025c2.456,7.727-2.984,28.218-4.03,32.229a119.419,119.419,0,0,0-1.668,12.522h23.963A39.566,39.566,0,0,0,392,276.614V187.45A39.566,39.566,0,0,0,352.55,148Z" transform="translate(1627.971 81.597)"/><ellipse class="b" cx="25.138" cy="22.875" rx="25.138" ry="22.875" transform="translate(1811.113 259.682)"/><path class="c" d="M470.29,536.7h0s8.467-5.821,8.467-8.467,5.821-19.846,9-12.172-4.5,18.523-4.5,18.523-8.467,15.347-13.495,17.993a12.068,12.068,0,0,1-9.261,1.059v-7.144l4.837-7.159A5.977,5.977,0,0,1,470.29,536.7Z" transform="translate(1407.371 -179.394)"/><path class="d" d="M406.544,446.336s12.69,4.012,14.013,5.865,1.852-1.323,5.557,10.849A127.22,127.22,0,0,1,430.744,487s-9.129,3.043-8.07,14.95-1.588,24.873-1.588,24.873h-3.3L410.5,504.328l8.732-34.134S406.82,449.2,406.544,446.336Z" transform="translate(1447.05 -129.556)"/><circle class="c" cx="15.876" cy="15.876" r="15.876" transform="translate(1833.472 273.958)"/><path class="c" d="M344.373,372.345s-4.5,14.818-.529,16.935,8.467,11.643,8.467,11.643l-6.88,7.674H329.555l-7.144-7.938L319.5,387.163l3.969-3.175S327.7,373.4,327.7,367.847,344.373,372.345,344.373,372.345Z" transform="translate(1511.062 -70.604)"/><path class="e" d="M328.047,437.17s-3.175-.794-1.323,2.381,3.7,9-2.911,9.261-13.23-3.175-15.347-10.32-2.911-6.615-3.7-6.351-9.261,9-9.261,9l2.911,16.406,1.058,58.743H338.1s1.588-16.935-1.058-20.9,2.381-14.024,2.381-14.024,4.5-6.88,1.058-20.11S329.37,437.17,328.047,437.17Z" transform="translate(1528.711 -119.023)"/><path class="d" d="M266.167,431.007a6.964,6.964,0,0,0-7.409,1.323c-3.44,3.175-11.113,5.821-11.113,7.409s6.615,46.835,2.117,54.774-9.261,20.639-9.261,20.639h22.072s3.6-13.23,7.3-20.375,3.44-27.255,2.382-33.341S266.167,431.007,266.167,431.007Z" transform="translate(1569.158 -117.888)"/><path class="c" d="M118.5,539.94l1.289,14.024h14.3l-1.3-17.464Z" transform="translate(1693.539 -156.699)"/><path class="b" d="M364.5,461.2l3.44,21.433h76.471l6.615-43.131Z" transform="translate(1512.632 -85.367)"/><path class="b" d="M429.669,428.5l.794,3.969L331.5,456.284v-3.44Z" transform="translate(1536.9 -77.277)"/><path class="b" d="M543.029,453.294l-.529,4.5,5.821-.794-2.382-4.5Z" transform="translate(1381.733 -94.926)"/><path class="f" d="M554.5,431.45s11.643-.794,14.818,8.2,10.584,25.138,13.495,27.519,6.086,8.732,5.557,10.849" transform="translate(1338.244 -118.596)"/><path class="d" d="M546.837,425.688c0,1.761-2.164,3.189-5.635,3.189s-5.2-1.428-5.2-3.189,1.73-3.188,5.2-3.188S546.837,423.927,546.837,425.688Z" transform="translate(1348.265 -113.267)"/><path class="d" d="M427.833,483.557s1.985-8.335-1.72-20.507-4.234-9-5.557-10.849-14.013-5.865-14.013-5.865c.091.942,1.492,3.841,3.333,7.309a14.074,14.074,0,0,0-1.492-3.561c-1.852-3.175,1.323-2.381,1.323-2.381,1.323,0,9,10.849,12.437,24.079s-1.058,20.11-1.058,20.11Z" transform="translate(1447.05 -129.556)"/><path class="d" d="M407,446s1.567,5.942,2.9,6.808,9.243,9.083,9.243,9.083l-1.029-6.629-4.234-6.351-1.126-.817Z" transform="translate(1446.715 -129.308)"/><path class="g" d="M248.161,477.127l.369-13.627s-8.7,3.7-9.5,19.581,1.323,45.777,4.234,46.042,16.67-2.911,16.67-2.911,2.117-38.368,1.323-43.4S248.161,477.127,248.161,477.127Z" transform="translate(1570.36 -142.178)"/><path class="d" d="M243.675,463.5H241.53s-8.7,3.7-9.5,19.581,1.323,45.777,4.234,46.042,16.67-2.911,16.67-2.911,2.117-38.368,1.323-43.4S243.675,463.5,243.675,463.5Z" transform="translate(1575.508 -142.178)"/><ellipse class="b" cx="16.714" cy="17.88" rx="16.714" ry="17.88" transform="translate(1813.389 267.819)"/><ellipse class="c" cx="3.887" cy="6.219" rx="3.887" ry="6.219" transform="translate(1838.266 289.587)"/><ellipse class="b" cx="13.605" cy="13.216" rx="13.605" ry="13.216" transform="translate(1800.173 253.049)"/><path class="b" d="M208.822,269.99a13.494,13.494,0,0,1-19.552-10.746,13.493,13.493,0,1,0,26.772.751A13.474,13.474,0,0,1,208.822,269.99Z" transform="translate(1606.945 8.031)"/><path class="b" d="M211.971,208.369a13.494,13.494,0,0,1,6.8-21.251,13.494,13.494,0,1,0,4.4,26.419A13.474,13.474,0,0,1,211.971,208.369Z" transform="translate(1594.649 61.072)"/><ellipse class="b" cx="9.718" cy="7.385" rx="9.718" ry="7.385" transform="translate(1840.599 270.929)"/></g></svg>