<svg xmlns="http://www.w3.org/2000/svg" width="261" height="207.285" viewBox="0 0 261 207.285"><defs><style>.a{fill:#f2f2f2;}.b{fill:#3f3d56;}.c{fill:#2e2e2e;}.d{fill:#e6e8ec;}.e{fill:#50c4d0;}.f{opacity:0.2;}.g{fill:#cecece;}.h{fill:#fff;}.i{fill:#5abb67;}.j{fill:#407fc2;}.k{fill:#f8d3c5;}.l{fill:rgba(255,255,255,0.47);stroke:#2e2e2e;}.m,.n,.p{fill:none;}.m{stroke:#fff;}.m,.n{stroke-width:2px;}.n{stroke:#5abb67;}.o{stroke:none;}</style></defs><g transform="translate(-345.626 -791.841)"><rect class="a" width="238.059" height="114.739" transform="translate(606.626 901.732) rotate(163.286)"/><path class="b" d="M421.841,280.434c-.739,0-1.486-.012-2.218-.035l.017-.532c1.052.033,2.126.042,3.183.027l.007.533Q422.336,280.434,421.841,280.434Zm4.194-.124-.031-.532c1.054-.062,2.121-.15,3.172-.26l.056.53C428.172,280.16,427.1,280.248,426.035,280.31Zm-9.615-.083c-1.063-.081-2.136-.188-3.192-.318l.065-.529c1.047.128,2.113.234,3.167.315Zm15.992-.586-.08-.526c1.047-.159,2.1-.343,3.135-.549l.1.522C434.53,279.3,433.468,279.482,432.413,279.642Zm-22.358-.195c-1.05-.178-2.109-.382-3.149-.608l.113-.521c1.032.224,2.083.427,3.125.6Zm28.647-1.055-.128-.517c1.028-.254,2.061-.535,3.072-.835l.151.511C440.779,277.853,439.738,278.136,438.7,278.392Zm-34.914-.305c-1.03-.274-2.066-.575-3.08-.9l.16-.508c1.006.318,2.035.617,3.056.889Zm41.063-1.519-.175-.5c1-.347,2-.722,2.982-1.114l.2.495C446.867,275.84,445.856,276.218,444.851,276.568Zm-47.186-.417c-1-.368-2.006-.764-2.991-1.179l.207-.491c.977.411,1.975.805,2.968,1.17Zm53.134-1.963-.221-.485c.958-.435,1.921-.9,2.861-1.381l.242.474C452.733,273.281,451.763,273.749,450.8,274.188Zm-59.057-.531c-.961-.458-1.926-.945-2.868-1.448l.251-.47c.934.5,1.892.983,2.846,1.437Zm64.756-2.382-.264-.462c.918-.524,1.835-1.075,2.725-1.638l.285.45C458.348,270.191,457.424,270.746,456.5,271.274Zm-70.421-.644c-.914-.544-1.83-1.117-2.721-1.7l.293-.445c.884.583,1.793,1.152,2.7,1.692Zm75.835-2.781-.3-.436c.865-.6,1.728-1.237,2.565-1.881l.325.422C463.653,266.6,462.783,267.241,461.912,267.849Zm-81.2-.75c-.86-.625-1.719-1.279-2.553-1.945l.332-.416c.828.661,1.68,1.31,2.534,1.93Zm86.277-3.155-.343-.407c.806-.68,1.608-1.389,2.385-2.107l.362.391c-.782.723-1.591,1.438-2.4,2.123ZM375.7,263.1c-.8-.7-1.6-1.431-2.365-2.168l.369-.384c.762.732,1.552,1.456,2.346,2.152Zm96-3.506-.379-.374c.743-.753,1.478-1.532,2.185-2.316l.4.356c-.712.79-1.452,1.575-2.2,2.334Zm-100.626-.935c-.735-.773-1.46-1.571-2.157-2.373l.4-.349c.691.8,1.411,1.589,2.14,2.355Zm104.92-3.83-.411-.338c.671-.817,1.332-1.66,1.965-2.506l.427.319C477.337,253.151,476.671,254,475.995,254.824Zm-109.123-1.011c-.66-.834-1.309-1.694-1.931-2.558l.432-.311c.617.857,1.262,1.711,1.916,2.539Zm112.966-4.128-.441-.3c.594-.875,1.176-1.775,1.729-2.676l.454.279C481.023,247.9,480.436,248.8,479.838,249.684Zm-116.709-1.073c-.58-.89-1.149-1.805-1.689-2.722l.459-.271c.536.91,1.1,1.819,1.676,2.7Zm120.07-4.4-.466-.257c.511-.926,1.008-1.876,1.477-2.825l.478.236C484.214,242.323,483.714,243.281,483.2,244.213Zm-123.32-1.12c-.5-.939-.979-1.9-1.432-2.863l.482-.227c.45.954.928,1.91,1.421,2.842Zm126.165-4.639-.488-.214c.424-.969.832-1.962,1.212-2.951l.5.191C486.882,236.477,486.471,237.477,486.043,238.454Zm-128.9-1.15c-.408-.98-.8-1.983-1.162-2.981l.5-.182c.36.99.748,1.985,1.153,2.958Zm131.2-4.852-.506-.167c.332-1,.646-2.026.932-3.043l.513.144c-.289,1.026-.6,2.058-.94,3.067Zm-133.388-1.167c-.317-1.015-.615-2.052-.885-3.083l.515-.135c.268,1.023.564,2.052.878,3.06Zm135.124-5.006-.519-.121c.239-1.027.457-2.075.648-3.116l.524.1c-.193,1.049-.413,2.105-.653,3.141Zm-136.752-1.2c-.222-1.041-.423-2.1-.6-3.151l.525-.087c.173,1.043.373,2.095.593,3.127Zm137.912-5.11-.528-.072c.143-1.043.264-2.107.36-3.162l.531.048c-.1,1.063-.218,2.135-.362,3.187Zm-138.962-1.216c-.126-1.055-.229-2.129-.307-3.192l.531-.039c.077,1.056.18,2.122.3,3.168Zm139.542-5.17-.532-.024c.047-1.056.072-2.126.072-3.182h.533c0,1.064-.024,2.143-.072,3.206Zm-140.01-1.226c-.018-.653-.027-1.32-.028-1.98q0-.615.011-1.228l.533.009q-.011.608-.01,1.218c0,.656.009,1.317.027,1.966Zm139.545-2.723c-.011-1.056-.046-2.127-.1-3.182l.532-.03c.059,1.063.095,2.142.106,3.206Zm-138.9-3.655-.532-.033c.066-1.064.158-2.14.273-3.2l.53.057C352.613,203.857,352.522,204.924,352.456,205.981ZM491,203.281c-.106-1.05-.239-2.113-.393-3.159l.527-.078c.156,1.054.289,2.124.4,3.183Zm-137.864-3.627-.526-.081c.163-1.054.353-2.116.564-3.158l.522.106C353.491,197.554,353.3,198.608,353.141,199.654Zm136.933-2.668c-.2-1.039-.432-2.085-.682-3.109l.518-.126c.251,1.032.482,2.086.687,3.133ZM354.4,193.416l-.517-.13c.259-1.032.545-2.072.852-3.092l.51.153C354.944,191.36,354.66,192.392,354.4,193.416ZM488.568,190.8c-.3-1.014-.622-2.035-.965-3.033l.5-.173c.346,1.006.673,2.034.973,3.056Zm-132.331-3.489-.5-.177c.354-1.007.736-2.019,1.136-3.008l.494.2C356.968,185.309,356.588,186.314,356.237,187.313ZM486.5,184.784c-.389-.98-.8-1.964-1.237-2.925l.486-.219c.436.968.855,1.959,1.247,2.947ZM358.628,181.4l-.484-.222c.445-.969.918-1.941,1.407-2.888l.473.244C359.539,179.474,359.07,180.439,358.628,181.4Zm125.264-2.407c-.477-.94-.982-1.883-1.5-2.8l.464-.262c.524.925,1.032,1.875,1.513,2.822Zm-122.34-3.258-.462-.266c.531-.923,1.092-1.846,1.666-2.745l.449.287C362.635,173.9,362.079,174.82,361.552,175.736Zm119.211-2.273c-.563-.9-1.152-1.789-1.752-2.654l.438-.3c.6.871,1.2,1.771,1.766,2.674Zm-115.782-3.1-.435-.307c.614-.871,1.256-1.739,1.909-2.58l.421.326C366.228,168.64,365.59,169.5,364.981,170.366Zm112.158-2.129c-.642-.841-1.311-1.677-1.988-2.484l.408-.342c.682.814,1.356,1.656,2,2.5Zm-108.255-2.9-.406-.345c.689-.809,1.408-1.615,2.135-2.395l.389.363C370.281,163.731,369.568,164.531,368.884,165.334Zm104.168-1.973c-.716-.779-1.458-1.551-2.206-2.294l.376-.378c.754.749,1.5,1.527,2.223,2.312Zm-99.825-2.681-.372-.381c.762-.745,1.55-1.482,2.343-2.19l.355.4c-.787.7-1.569,1.434-2.325,2.173Zm95.311-1.806c-.784-.711-1.594-1.413-2.407-2.085l.34-.41c.819.677,1.635,1.384,2.425,2.1Zm-90.565-2.432-.336-.413c.824-.671,1.675-1.333,2.531-1.967l.317.428c-.849.63-1.694,1.286-2.512,1.952Zm85.659-1.627c-.846-.637-1.717-1.262-2.588-1.858l.3-.44c.878.6,1.755,1.23,2.608,1.872Zm-80.549-2.16-.3-.442c.882-.593,1.79-1.174,2.7-1.727l.277.455C384.859,151.49,383.958,152.066,383.083,152.655Zm75.291-1.436c-.9-.557-1.825-1.1-2.748-1.615l.259-.465c.93.518,1.862,1.066,2.769,1.627Zm-69.861-1.867-.256-.467c.933-.511,1.89-1.006,2.843-1.472l.234.479C390.389,148.353,389.439,148.845,388.513,149.352Zm64.293-1.234c-.948-.472-1.919-.929-2.886-1.356l.215-.487c.975.431,1.953.891,2.908,1.366Zm-58.587-1.557-.212-.489c.975-.423,1.972-.828,2.964-1.2l.189.5c-.984.374-1.974.776-2.941,1.2Zm52.755-1.021c-.986-.383-2-.747-3-1.085l.17-.505c1.012.34,2.03.708,3.024,1.093ZM400.162,144.3,400,143.8c1.012-.332,2.045-.644,3.07-.929l.142.513c-1.017.282-2.042.592-3.046.922Zm40.771-.792c-1.016-.29-2.052-.559-3.08-.8l.122-.518c1.036.244,2.08.516,3.1.808Zm-34.639-.91-.119-.519c1.038-.237,2.1-.453,3.142-.642l.095.524C408.373,142.153,407.324,142.367,406.294,142.6Zm28.445-.551c-1.037-.195-2.094-.368-3.141-.515l.074-.528c1.055.148,2.12.323,3.165.519Zm-22.182-.58-.07-.528c1.055-.141,2.127-.259,3.188-.351l.046.531c-1.052.092-2.117.209-3.163.349Zm15.88-.306c-1.049-.1-2.117-.175-3.175-.226l.026-.532c1.065.052,2.141.128,3.2.228Zm-9.54-.247-.022-.532c.979-.041,1.977-.062,2.966-.062h.241l0,.533h-.24C420.859,140.858,419.869,140.878,418.9,140.919Z" transform="translate(69.778 693.859)"/><path class="c" d="M337.563,215.6v17.5a.612.612,0,0,1-.61.61h-.434v91.138a9.51,9.51,0,0,1-9.509,9.509H270.063a9.507,9.507,0,0,1-9.507-9.508V236.9h-.314a.431.431,0,0,1-.432-.429v-9.957a.431.431,0,0,1,.432-.432h.314v-3.75h-.317a.452.452,0,0,1-.45-.453v-9.821a.451.451,0,0,1,.45-.45h.317v-5.12h-.322a.4.4,0,0,1-.4-.4v-5.359a.4.4,0,0,1,.4-.4h.322V189.481a9.507,9.507,0,0,1,9.506-9.507H327.01a9.509,9.509,0,0,1,9.509,9.507v25.513h.434A.612.612,0,0,1,337.563,215.6Z" transform="translate(137.27 664.771)"/><rect class="d" width="10.608" height="2.154" rx="1.077" transform="translate(428.62 849.621)"/><circle class="d" cx="1.222" cy="1.222" r="1.222" transform="translate(440.831 849.476)"/><path class="e" d="M347.383,206.107V340.38a6.033,6.033,0,0,1-6.033,6.031H286.837a6.023,6.023,0,0,1-6.033-6.031V206.107a6.033,6.033,0,0,1,6.033-6.033H295v1.047a4.968,4.968,0,0,0,4.968,4.968h27.724a4.968,4.968,0,0,0,4.968-4.968v-1.047h8.694A6.031,6.031,0,0,1,347.383,206.107Z" transform="translate(121.853 650.025)"/><rect class="f" width="61.797" height="30.1" transform="translate(405.318 894.116)"/><rect class="g" width="61.797" height="30.1" transform="translate(502.276 859.755)"/><rect class="h" width="61.797" height="30.1" transform="translate(405.318 939.739)"/><circle class="h" cx="5.327" cy="5.327" r="5.327" transform="translate(449.503 864.107)"/><path class="i" d="M429.623,114.505H427.4v-2.226h-.342v2.226h-2.226v.343h2.226v2.226h.342v-2.226h2.226Z" transform="translate(27.605 754.758)"/><rect class="j" width="61.797" height="30.1" transform="translate(495.351 855.759)"/><rect class="c" width="61.797" height="30.1" transform="translate(418.636 889.322)"/><rect class="h" width="0.533" height="19.821" transform="translate(430.895 899.642)"/><circle class="i" cx="2.803" cy="2.803" r="2.803" transform="translate(428.359 897.105)"/><path class="h" d="M433.231,410.744s-.4-8.612-8.609-7.611" transform="translate(-2.069 501.113)"/><path class="k" d="M554.573,463.522l-34.279,10.724-42.642-26.908,0,0-.14-.086-.023-.015-.339-.213-4.06-2.555c.008-.069.017-.136.031-.2a1.84,1.84,0,0,1,.418-.852,2.054,2.054,0,0,1,.241-.241h0c.038-.033.078-.065.121-.1s.086-.063.132-.092a6.616,6.616,0,0,1,3.2-.818,15.241,15.241,0,0,1,7.685,1.666c4.793,2.424,15.1,7.195,16.7,4.273,2.107-3.83-21.831-46.536-21.831-46.536-1.971-5.065-.529-6.72.375-7.241l.079-.044a2.232,2.232,0,0,1,.3-.126,1.386,1.386,0,0,1,.163-.048l.044-.01,3.175,4.221.048.063.17.228.052.069,19.248,25.581c29.492-15.895,39.641,26.619,39.641,26.619Z" transform="translate(-19.213 507.68)"/><path class="b" d="M503.8,398.709a.833.833,0,0,1-.772.469,1.225,1.225,0,0,1-.314-.042,4.243,4.243,0,0,1-2.155-2.04,4.392,4.392,0,0,1-.708-2.784,2.23,2.23,0,0,1,.3-.126,1.371,1.371,0,0,1,.163-.048,3.455,3.455,0,0,0,.582,2.767,3.914,3.914,0,0,0,1.919,1.859.521.521,0,0,0,.718-.415l.048.063.17.228Z" transform="translate(-38.819 507.653)"/><path class="b" d="M478.745,582.138l-.023-.015-.339-.213a3.822,3.822,0,0,0-1.325-2.338,4.077,4.077,0,0,0-2.287-1.27,2.038,2.038,0,0,1,.241-.241h0c.038-.033.079-.065.121-.1a4.991,4.991,0,0,1,2.191,1.333A3.781,3.781,0,0,1,478.745,582.138Z" transform="translate(-20.447 372.792)"/><g transform="translate(426.626 947.469)"><g transform="translate(0 0)"><g class="l"><ellipse class="o" cx="10" cy="8.5" rx="10" ry="8.5"/><ellipse class="p" cx="10" cy="8.5" rx="9.5" ry="8"/></g></g><g transform="translate(8.042 4.774)"><path class="c" d="M17.4,5.072,13.236,2.586a.544.544,0,0,0-.836.4V7.95a.542.542,0,0,0,.836.4L17.4,5.865A.452.452,0,0,0,17.4,5.072Z" transform="translate(-12.4 -2.505)"/></g></g><rect class="h" width="12" height="11" transform="translate(500.626 860.469)"/><line class="m" x2="33.794" transform="translate(516.49 862.295)"/><line class="n" x2="13.277" transform="translate(440.629 907.223)"/><line class="m" x2="33.794" transform="translate(516.49 867.451)"/><line class="n" x2="13.277" transform="translate(440.629 912.378)"/><line class="n" x2="13.277" transform="translate(440.629 902.067)"/><line class="m" x2="50.083" transform="translate(500.201 878.499)"/></g></svg>