<svg xmlns="http://www.w3.org/2000/svg" width="21.151" height="21.02" viewBox="0 0 21.151 21.02"><defs><style>.a{fill:#039be5;}</style></defs><path class="a" d="M19.983,0H1.167A1.164,1.164,0,0,0,0,1.161v18.7a1.164,1.164,0,0,0,1.167,1.161H11.3v-8.14H8.541V9.708H11.3V7.368A3.834,3.834,0,0,1,15.4,3.175a23,23,0,0,1,2.463.125V6.137H16.175c-1.325,0-1.581.626-1.581,1.544V9.707h3.162l-.413,3.172H14.593V21.02h5.39a1.165,1.165,0,0,0,1.168-1.16V1.16A1.164,1.164,0,0,0,19.983,0Z" transform="translate(0 -0.001)"/></svg>