<svg xmlns="http://www.w3.org/2000/svg" xmlns:xlink="http://www.w3.org/1999/xlink" width="93.705" height="46.966" viewBox="0 0 93.705 46.966"><defs><style>.a{fill:#407fc2;}.b{opacity:0.3;}.c{clip-path:url(#a);}.d{fill:#50c4d0;}.e{clip-path:url(#b);}.f{fill:#5abb67;}.g{fill:#fff;}</style><clipPath id="a"><rect width="4.482" height="2.731"/></clipPath><clipPath id="b"><rect width="3.514" height="2.358"/></clipPath></defs><g transform="translate(-138 -22.472)"><g transform="translate(138 23.139)"><path class="a" d="M7.055,50.019a7.148,7.148,0,0,1-5.8-2.993A6.956,6.956,0,0,1,0,42.993V11.1a1.035,1.035,0,1,1,2.071,0v31.89a4.9,4.9,0,0,0,.876,2.841,5.06,5.06,0,0,0,4.935,2.044,4.9,4.9,0,0,0,2.629-1.39l12.05-12.05A1.035,1.035,0,1,1,24.026,35.9L11.975,47.953a6.878,6.878,0,0,1-4.921,2.067" transform="translate(-0.001 -10.067)"/><g class="b" transform="translate(4.56 37.221)"><g class="c"><path d="M60.68,472.362a3.865,3.865,0,0,1-1.687-1.338,3.682,3.682,0,0,1-.233-.378,5.1,5.1,0,0,1-2.4-.659,5.756,5.756,0,0,0,.945,2.23q.142.2.3.39a7.053,7.053,0,0,0,1.243.111,6.93,6.93,0,0,0,1.181-.1,6.832,6.832,0,0,0,.813-.194c-.053-.019-.105-.039-.157-.061" transform="translate(-56.355 -469.987)"/></g></g><path class="d" d="M53.193,96.412a6.015,6.015,0,0,1-4.877-2.517A5.854,5.854,0,0,1,47.259,90.5V58.118a1.035,1.035,0,0,1,2.071,0V90.5a3.741,3.741,0,0,0,.678,2.2,3.924,3.924,0,0,0,3.826,1.585,3.741,3.741,0,0,0,2.036-1.077L69.622,79.457a1.035,1.035,0,0,1,1.464-.022,1.061,1.061,0,0,1,0,1.486L57.334,94.673a5.792,5.792,0,0,1-4.141,1.738" transform="translate(-43.434 -53.278)"/><g class="b" transform="translate(8.298 40.776)"><g class="e"><path d="M105.065,515.048a2.545,2.545,0,0,1-.4-.906l-.023,0a3.857,3.857,0,0,1-2.1-.232,4.69,4.69,0,0,0,.833,2.324,5.933,5.933,0,0,0,.627.034,5.812,5.812,0,0,0,.994-.086,5.707,5.707,0,0,0,1.059-.291,2.7,2.7,0,0,1-.985-.848" transform="translate(-102.537 -513.914)"/></g></g><path class="f" d="M99.321,143.009a4.847,4.847,0,0,1-3.934-2.031,4.723,4.723,0,0,1-.853-2.739V105.374a1.035,1.035,0,0,1,2.071,0v32.864a2.63,2.63,0,0,0,.475,1.546,2.764,2.764,0,0,0,2.691,1.114,2.631,2.631,0,0,0,1.429-.757L114.847,126.5a1.035,1.035,0,0,1,1.464,1.464l-13.647,13.647a4.68,4.68,0,0,1-3.343,1.4" transform="translate(-86.883 -96.71)"/><path class="g" d="M310.748,198.163l1.509-1.509a13.282,13.282,0,0,0,4.083-8.124.48.48,0,0,0-.138-.381.488.488,0,0,0-.377-.141,13.162,13.162,0,0,0-8.166,4.05l-1.51,1.51-.466-.094a2.765,2.765,0,0,0-2.476.758l-1.8,1.8a.414.414,0,0,0-.1.409.407.407,0,0,0,.312.282l1.509.3a2.2,2.2,0,0,1,1.118.6l2.444,2.444a2.18,2.18,0,0,1,.6,1.118l.3,1.509a.408.408,0,0,0,.69.209l1.8-1.8a2.768,2.768,0,0,0,.759-2.476Zm.065-4.662a1.417,1.417,0,1,1,2,0,1.418,1.418,0,0,1-2,0" transform="translate(-276.902 -173.606)"/></g><g transform="translate(160.228 22.472)"><path class="g" d="M277.949,1.823V13.789h-3.291V1.823Z" transform="translate(-274.658 -1.823)"/><path class="g" d="M338.28,43.176a3.44,3.44,0,0,1,1.413,1.354,3.942,3.942,0,0,1,.49,1.978v1.03h-5.534v.8a1.063,1.063,0,0,0,.357.864,1.387,1.387,0,0,0,.922.3,1.109,1.109,0,0,0,.889-.357,1.468,1.468,0,0,0,.307-.989h3.041a3.1,3.1,0,0,1-.49,1.712,3.316,3.316,0,0,1-1.429,1.2,5.184,5.184,0,0,1-2.219.44h-.249a5.6,5.6,0,0,1-2.385-.49,3.872,3.872,0,0,1-1.662-1.429,4.026,4.026,0,0,1-.607-2.235v-.515a4.206,4.206,0,0,1,.573-2.235,3.69,3.69,0,0,1,1.6-1.429,5.431,5.431,0,0,1,2.36-.49h.416A4.637,4.637,0,0,1,338.28,43.176Zm-3.3,1.861a1.135,1.135,0,0,0-.332.823v.233h2.293V45.86a1.136,1.136,0,0,0-.332-.823,1.144,1.144,0,0,0-1.629,0Z" transform="translate(-326.555 -39.379)"/><path class="g" d="M458.113,44.741l-2.775,8.492h-3.806l-2.742-8.492H452.3l1.246,4.853h.116l1.246-4.853Z" transform="translate(-434.697 -41.268)"/><path class="g" d="M576.48,43.176a3.44,3.44,0,0,1,1.413,1.354,3.942,3.942,0,0,1,.49,1.978v1.03h-5.534v.8a1.063,1.063,0,0,0,.357.864,1.388,1.388,0,0,0,.923.3,1.108,1.108,0,0,0,.889-.357,1.469,1.469,0,0,0,.307-.989h3.041a3.1,3.1,0,0,1-.49,1.712,3.315,3.315,0,0,1-1.429,1.2,5.183,5.183,0,0,1-2.219.44h-.249a5.6,5.6,0,0,1-2.385-.49,3.873,3.873,0,0,1-1.662-1.429,4.028,4.028,0,0,1-.606-2.235v-.515a4.205,4.205,0,0,1,.573-2.235,3.692,3.692,0,0,1,1.6-1.429,5.431,5.431,0,0,1,2.36-.49h.416A4.637,4.637,0,0,1,576.48,43.176Zm-3.3,1.861a1.135,1.135,0,0,0-.332.823v.233h2.293V45.86a1.136,1.136,0,0,0-.332-.823,1.144,1.144,0,0,0-1.629,0Z" transform="translate(-545.478 -39.379)"/><path class="g" d="M704.237,43.294a2.258,2.258,0,0,1,.607,1.67v.283l-.033.632-.033.415h-2.693v-.4a.873.873,0,0,0-.208-.59.63.63,0,0,0-.49-.241.645.645,0,0,0-.507.241.871.871,0,0,0-.208.59v5.451h-3.207V42.853h2.46l.366,1.23a2.957,2.957,0,0,1,.382-.532,2.708,2.708,0,0,1,.765-.6,2.235,2.235,0,0,1,1.1-.266A2.3,2.3,0,0,1,704.237,43.294Z" transform="translate(-663.247 -39.38)"/><path class="g" d="M803.771,43.435a2.306,2.306,0,0,1,1.022,1.944v3.507a.634.634,0,0,0,.15.465.5.5,0,0,0,.366.15,1.166,1.166,0,0,0,.582-.15v1.778a2.912,2.912,0,0,1-1.678.382,3.344,3.344,0,0,1-1.679-.357,1.523,1.523,0,0,1-.764-.989,4.514,4.514,0,0,1-1.172.981,3.124,3.124,0,0,1-1.571.366,4.049,4.049,0,0,1-2.16-.515,2.2,2.2,0,0,1-.831-2.028,2.34,2.34,0,0,1,.648-1.77,3.642,3.642,0,0,1,1.853-.864,16.091,16.091,0,0,1,3.066-.241v-.482a.917.917,0,0,0-.307-.731,1.142,1.142,0,0,0-.773-.266,1.294,1.294,0,0,0-.723.224.655.655,0,0,0-.341.557v.066H796.3a.973.973,0,0,1-.016-.233,1.93,1.93,0,0,1,.49-1.288,3.336,3.336,0,0,1,1.4-.914,5.956,5.956,0,0,1,2.1-.341h.548A4.946,4.946,0,0,1,803.771,43.435ZM799.99,47.9a.892.892,0,0,0-.515.806q0,.8,1,.8a1.1,1.1,0,0,0,.8-.324,1.121,1.121,0,0,0,.332-.839v-.731A3.412,3.412,0,0,0,799.99,47.9Z" transform="translate(-753.84 -39.38)"/><path class="g" d="M929.328,27.329a2.747,2.747,0,0,1-1.371.764,2.468,2.468,0,0,1,.69.814,2.075,2.075,0,0,1,.241.964,2.235,2.235,0,0,1-.449,1.346,3.08,3.08,0,0,1-1.213.972,3.875,3.875,0,0,1-1.662.357h-1.147a1.413,1.413,0,0,0-.715.141.413.413,0,0,0-.233.357.431.431,0,0,0,.2.382,1.459,1.459,0,0,0,.748.133h2.709a2.613,2.613,0,0,1,1.994.706,2.64,2.64,0,0,1,.665,1.886,2.417,2.417,0,0,1-.457,1.4,3.276,3.276,0,0,1-1.221,1.047,3.569,3.569,0,0,1-1.645.391h-4.4a1.931,1.931,0,0,1-1.4-.582,1.91,1.91,0,0,1-.59-1.413v-.083a1.753,1.753,0,0,1,.366-1.072,2.357,2.357,0,0,1,.9-.74,1.868,1.868,0,0,1-.582-.631,1.634,1.634,0,0,1,.225-1.928,2.124,2.124,0,0,1,1.089-.665,3.274,3.274,0,0,1-.931-.9,1.921,1.921,0,0,1-.349-1.1,2.319,2.319,0,0,1,.98-1.928,4.62,4.62,0,0,1,2.842-.748h.465a5.6,5.6,0,0,1,1.1.1,3.205,3.205,0,0,0,.9-.806,1.253,1.253,0,0,0,.266-.656h2.46A2.16,2.16,0,0,1,929.328,27.329Zm-6.3,8.742a.605.605,0,0,0-.241.482.629.629,0,0,0,.241.49.872.872,0,0,0,.59.208H926a.9.9,0,0,0,.59-.2.607.607,0,0,0,.241-.482.63.63,0,0,0-.241-.49.872.872,0,0,0-.59-.208H923.62A.9.9,0,0,0,923.029,36.071Zm1.147-6.922a1.085,1.085,0,0,0,0,1.479,1,1,0,0,0,1.446,0,1.086,1.086,0,0,0,0-1.479,1,1,0,0,0-1.446,0Z" transform="translate(-867.831 -23.906)"/><path class="g" d="M1053.09,43.176a3.44,3.44,0,0,1,1.412,1.354,3.941,3.941,0,0,1,.49,1.978v1.03h-5.534v.8a1.063,1.063,0,0,0,.357.864,1.388,1.388,0,0,0,.922.3,1.108,1.108,0,0,0,.889-.357,1.467,1.467,0,0,0,.307-.989h3.041a3.1,3.1,0,0,1-.49,1.712,3.316,3.316,0,0,1-1.429,1.2,5.182,5.182,0,0,1-2.219.44h-.249a5.6,5.6,0,0,1-2.385-.49,3.875,3.875,0,0,1-1.662-1.429,4.028,4.028,0,0,1-.607-2.235v-.515a4.208,4.208,0,0,1,.573-2.235,3.692,3.692,0,0,1,1.6-1.429,5.433,5.433,0,0,1,2.36-.49h.416A4.638,4.638,0,0,1,1053.09,43.176Zm-3.3,1.861a1.135,1.135,0,0,0-.332.823v.233h2.294V45.86a1.136,1.136,0,0,0-.332-.823,1.144,1.144,0,0,0-1.629,0Z" transform="translate(-983.515 -39.379)"/></g><g transform="translate(181.034 37.706)"><path class="g" d="M538.9,231.411a3.439,3.439,0,0,1,1.413,1.354,3.94,3.94,0,0,1,.49,1.978v1.03h-5.534v.8a1.063,1.063,0,0,0,.357.864,1.387,1.387,0,0,0,.922.3,1.109,1.109,0,0,0,.889-.357,1.469,1.469,0,0,0,.307-.989h3.041a3.1,3.1,0,0,1-.49,1.712,3.317,3.317,0,0,1-1.429,1.2,5.185,5.185,0,0,1-2.219.44H536.4a5.6,5.6,0,0,1-2.385-.49,3.872,3.872,0,0,1-1.662-1.429,4.027,4.027,0,0,1-.607-2.235v-.515a4.2,4.2,0,0,1,.573-2.235,3.692,3.692,0,0,1,1.6-1.429,5.432,5.432,0,0,1,2.36-.49h.416A4.637,4.637,0,0,1,538.9,231.411Zm-3.3,1.861a1.135,1.135,0,0,0-.332.823v.233h2.293v-.233a1.136,1.136,0,0,0-.332-.823,1.144,1.144,0,0,0-1.629,0Z" transform="translate(-531.749 -227.613)"/><path class="g" d="M661.434,202.024l-.3-.98a2.687,2.687,0,0,1-2.144,1.147,3.6,3.6,0,0,1-1.853-.482,3.3,3.3,0,0,1-1.3-1.454,5.418,5.418,0,0,1-.474-2.385v-.183a5.965,5.965,0,0,1,.424-2.385,3.243,3.243,0,0,1,1.147-1.454,2.884,2.884,0,0,1,1.637-.482,2.352,2.352,0,0,1,2.194,1.047v-4.354h3.29v11.966Zm-2.426-6.24a1.2,1.2,0,0,0-.3.823v2.41a1.2,1.2,0,0,0,.3.823.955.955,0,0,0,1.462,0,1.2,1.2,0,0,0,.3-.823v-2.41a1.2,1.2,0,0,0-.3-.823.955.955,0,0,0-1.462,0Z" transform="translate(-645.363 -190.058)"/><path class="g" d="M790.826,239.011a.634.634,0,0,0,.15.465.5.5,0,0,0,.366.15,1.165,1.165,0,0,0,.582-.15v1.778a2.912,2.912,0,0,1-1.679.382,3.186,3.186,0,0,1-1.629-.341,1.918,1.918,0,0,1-.814-1.005,3.516,3.516,0,0,1-.931.889,2.426,2.426,0,0,1-1.429.457h-.465a2.478,2.478,0,0,1-2.493-2.493v-6.166h3.291V238.3a1.026,1.026,0,0,0,.258.707.813.813,0,0,0,1.246,0,1.029,1.029,0,0,0,.258-.707v-5.318h3.29v6.033h0Z" transform="translate(-762.192 -229.504)"/></g></g></svg>