<svg width="11" height="16" viewBox="0 0 11 16" fill="none" xmlns="http://www.w3.org/2000/svg">
<path d="M6.42701 2.56713L10.9746 0H0L4.54757 2.56713H6.42701Z" fill="#199FA3"/>
<path d="M4.548 5.88452L3.20898 14.4989L5.48772 16.0001V5.88452H4.548Z" fill="#515BE0"/>
<path d="M5.4873 16.0001L7.76604 14.4989L6.42703 5.88452H5.4873V16.0001Z" fill="#424EDE"/>
<path d="M4.54751 2.56714L3.68848 3.89372L4.54751 5.88446H6.42696L7.28599 3.89372L6.42696 2.56714H4.54751Z" fill="#6E76E5"/>
<path d="M0 0V2.22792L2.95181 5.03147L3.68854 3.89371L4.54757 2.56713L0 0Z" fill="#00CCB3"/>
<path d="M6.42676 2.56713L7.28579 3.89371L8.02251 5.03147L10.9743 2.22792V0L6.42676 2.56713Z" fill="#00EED1"/>
</svg>
