<svg width="16" height="16" viewBox="0 0 16 16" fill="none" xmlns="http://www.w3.org/2000/svg">
<path d="M12.703 5.15058V8.6626C12.703 10.129 10.1413 10.9255 7.72452 10.9255C5.30778 10.9255 2.74609 10.129 2.74609 8.6626V5.15058C2.74609 4.90615 2.94516 4.698 3.19867 4.698H12.2504C12.5039 4.698 12.703 4.90615 12.703 5.15058Z" fill="#444444"/>
<path d="M12.7021 5.15058V8.6626C12.7021 10.129 10.1404 10.9255 7.72363 10.9255V4.698H12.2495C12.503 4.698 12.7021 4.90615 12.7021 5.15058Z" fill="#292929"/>
<path d="M15.4486 4.13683C15.4486 4.32695 15.3309 4.4989 15.1588 4.56221L7.88734 7.27772C7.83312 7.29586 7.77878 7.30494 7.72445 7.30494C7.67011 7.30494 7.61578 7.29586 7.56157 7.27772L0.290039 4.56221V3.71136L7.56157 0.995856C7.61578 0.977825 7.67011 0.96875 7.72445 0.96875C7.77878 0.96875 7.83312 0.977825 7.88734 0.995856L15.1588 3.71136C15.3309 3.77478 15.4486 3.94674 15.4486 4.13683Z" fill="#6E6E6E"/>
<path d="M15.4477 4.13683C15.4477 4.32695 15.3301 4.4989 15.158 4.56221L7.8865 7.27772C7.8323 7.29586 7.77797 7.30494 7.72363 7.30494V0.96875C7.77797 0.96875 7.8323 0.977825 7.8865 0.995856L15.158 3.71136C15.3301 3.77478 15.4477 3.94674 15.4477 4.13683Z" fill="#5A5A5A"/>
<path d="M8.17669 4.13691C8.17669 4.39031 7.97762 4.58951 7.72411 4.58951H0.90517V11.3058L1.78311 13.9489C1.86467 14.1842 1.73785 14.4468 1.5026 14.5191C1.25816 14.6007 1.00476 14.4739 0.932396 14.2385L0.90517 14.1572C0.868986 14.3744 0.678877 14.5464 0.452585 14.5464C0.199067 14.5464 0 14.3472 0 14.0938V4.13691C0 3.8834 0.199067 3.68433 0.452585 3.68433H7.72411C7.97762 3.68433 8.17669 3.8834 8.17669 4.13691Z" fill="#FDBF00"/>
</svg>
