<svg width="15" height="16" viewBox="0 0 15 16" fill="none" xmlns="http://www.w3.org/2000/svg">
<path d="M10.1312 14.1016H0V0.000732422H10.1312C10.5724 0.000732422 10.9302 0.364665 10.9302 0.813478V13.2889C10.9302 13.7377 10.5724 14.1016 10.1312 14.1016Z" fill="#556080"/>
<path d="M9.331 0.000732422H7.99805V14.1016H9.331V0.000732422Z" fill="#D75A4A"/>
<path d="M7.9977 4.61279H0V9.49415H7.9977V4.61279Z" fill="#424A60"/>
<path d="M10.9306 4.61279H9.33105V9.49415H10.9306V4.61279Z" fill="#424A60"/>
<path d="M2.66595 15.4577L1.86618 14.9154L1.06641 15.4577V14.1018H2.66595V15.4577Z" fill="#EBBA16"/>
<path d="M13.8623 1.89819H12.7959V2.98294H13.8623V1.89819Z" fill="#E0E1E2"/>
<path d="M13.8623 0H13.3251C13.252 0 13.1825 0.0151864 13.119 0.0423051C13.0873 0.0558644 13.0572 0.0724068 13.0292 0.0919322C12.8884 0.188746 12.7959 0.352542 12.7959 0.538305V1.89831H13.8623V0Z" fill="#D75A4A"/>
<path d="M14.3994 0C14.4725 0 14.542 0.0151864 14.6055 0.0423051C14.542 0.0151864 14.4725 0 14.3994 0Z" fill="#D75A4A"/>
<path d="M14.9287 2.98315H13.8623V13.2882H14.9287V2.98315Z" fill="#DB7B1B"/>
<path d="M14.9287 1.89819H13.8623V2.98294H14.9287V1.89819Z" fill="#C4C4C4"/>
<path d="M14.9286 0.538414C14.9286 0.352651 14.8361 0.188855 14.6953 0.092041C14.8361 0.188855 14.9286 0.352651 14.9286 0.538414Z" fill="#D75A4A"/>
<path d="M14.9287 1.89831V0.538305C14.9287 0.352542 14.8362 0.188746 14.6954 0.0919322C14.6674 0.072678 14.637 0.0558644 14.6056 0.0423051C14.5421 0.0151864 14.4725 0 14.3995 0H13.8623V1.89831H14.9287Z" fill="#B74C44"/>
<path d="M14.9286 13.2881H12.7959L13.8623 15.1864L14.9286 13.2881Z" fill="#EBD6BD"/>
<path d="M13.5957 15.7288C13.5957 15.8788 13.7149 16 13.8623 16C14.0097 16 14.1289 15.8788 14.1289 15.7288V14.644H13.5957V15.7288Z" fill="#4C4C4C"/>
<path d="M13.8623 2.98315H12.7959V13.2882H13.8623V2.98315Z" fill="#ED8A19"/>
</svg>
